<svg width="24" height="24" viewBox="0 0 24 24" fill="none" xmlns="http://www.w3.org/2000/svg">
<path fill-rule="evenodd" clip-rule="evenodd" d="M4.28571 15.4286C1.92625 15.4286 0 17.3548 0 19.7143C0 22.0738 1.92625 24 4.28571 24H16.2857C18.6451 24 20.5714 22.0738 20.5714 19.7143C20.5714 17.3548 18.6451 15.4286 16.2857 15.4286H4.28571ZM4.28571 17.1429H16.2857C17.7251 17.1429 18.8571 18.2749 18.8571 19.7143C18.8571 21.1537 17.7251 22.2857 16.2857 22.2857H4.28571C2.84631 22.2857 1.71428 21.1537 1.71428 19.7143C1.71428 18.2749 2.84631 17.1429 4.28571 17.1429Z" fill="#231F20"/>
<path fill-rule="evenodd" clip-rule="evenodd" d="M18 7.71429C17.7726 7.71429 17.5546 7.80459 17.3939 7.96533C17.2331 8.12608 17.1428 8.34411 17.1428 8.57144C17.1428 8.79877 17.2331 9.01677 17.3939 9.17752C17.5546 9.33826 17.7726 9.42858 18 9.42858C18.2273 9.42858 18.4453 9.33826 18.6061 9.17752C18.7668 9.01677 18.8571 8.79877 18.8571 8.57144C18.8571 8.34411 18.7668 8.12608 18.6061 7.96533C18.4453 7.80459 18.2273 7.71429 18 7.71429Z" fill="#231F20"/>
<path fill-rule="evenodd" clip-rule="evenodd" d="M18 2.57141C17.7726 2.57141 17.5546 2.6617 17.3939 2.82245C17.2331 2.98319 17.1428 3.20123 17.1428 3.42855V5.99998C17.1428 6.22731 17.2331 6.44532 17.3939 6.60606C17.5546 6.76681 17.7726 6.85713 18 6.85713C18.2273 6.85713 18.4453 6.76681 18.6061 6.60606C18.7668 6.44532 18.8571 6.22731 18.8571 5.99998V3.42855C18.8571 3.20123 18.7668 2.98319 18.6061 2.82245C18.4453 2.6617 18.2273 2.57141 18 2.57141Z" fill="#231F20"/>
<path fill-rule="evenodd" clip-rule="evenodd" d="M18 0C15.7454 0 13.7749 1.25607 12.75 3.10379C11.9784 2.75631 11.1395 2.57132 10.2857 2.57143C6.98214 2.57143 4.28571 5.26788 4.28571 8.57143C4.28571 11.875 6.98214 14.5714 10.2857 14.5714C10.2863 14.5714 10.2868 14.5714 10.2874 14.5714C12.4915 14.5654 14.4899 13.3509 15.529 11.4643C16.2836 11.8077 17.1197 12 18 12C21.3036 12 24 9.30356 24 6C24 2.69646 21.3035 0 18 0ZM18 1.71429C20.3771 1.71429 22.2857 3.62292 22.2857 6C22.2857 8.37709 20.3771 10.2857 18 10.2857C17.1564 10.2857 16.3727 10.0442 15.7115 9.62779C15.6486 9.57013 15.5775 9.52216 15.5005 9.48549C14.4175 8.70973 13.7143 7.44182 13.7143 6C13.7143 5.55111 13.7837 5.11838 13.9101 4.71261C13.9539 4.63206 13.9844 4.54502 14.0005 4.4548C14.6172 2.8476 16.1686 1.71429 18 1.71429ZM10.2857 4.28571C10.9313 4.28563 11.5652 4.43181 12.1423 4.70926C12.0504 5.12525 12 5.55717 12 6C12 7.80729 12.809 9.43169 14.0809 10.5335C13.3566 11.9426 11.9046 12.8521 10.2857 12.8571C7.90862 12.8571 5.99999 10.9485 5.99999 8.57143C5.99999 6.19435 7.90862 4.28571 10.2857 4.28571Z" fill="#231F20"/>
</svg>
