<svg width="20" height="21" viewBox="0 0 20 21" fill="none" xmlns="http://www.w3.org/2000/svg">
<path opacity="0.4" d="M13.3964 2.16663H16.2181C17.3866 2.16663 18.3335 3.1215 18.3335 4.29993V7.1454C18.3335 8.32382 17.3866 9.2787 16.2181 9.2787H13.3964C12.2279 9.2787 11.281 8.32382 11.281 7.1454V4.29993C11.281 3.1215 12.2279 2.16663 13.3964 2.16663Z" fill="#231F20"/>
<path fill-rule="evenodd" clip-rule="evenodd" d="M3.78219 2.16663H6.60382C7.77238 2.16663 8.71926 3.1215 8.71926 4.29993V7.1454C8.71926 8.32382 7.77238 9.2787 6.60382 9.2787H3.78219C2.61363 9.2787 1.66675 8.32382 1.66675 7.1454V4.29993C1.66675 3.1215 2.61363 2.16663 3.78219 2.16663ZM3.78219 11.7212H6.60382C7.77238 11.7212 8.71926 12.6761 8.71926 13.8545V16.7C8.71926 17.8776 7.77238 18.8333 6.60382 18.8333H3.78219C2.61363 18.8333 1.66675 17.8776 1.66675 16.7V13.8545C1.66675 12.6761 2.61363 11.7212 3.78219 11.7212ZM16.218 11.7212H13.3963C12.2278 11.7212 11.2809 12.6761 11.2809 13.8545V16.7C11.2809 17.8776 12.2278 18.8333 13.3963 18.8333H16.218C17.3865 18.8333 18.3334 17.8776 18.3334 16.7V13.8545C18.3334 12.6761 17.3865 11.7212 16.218 11.7212Z" fill="#231F20"/>
</svg>
