<svg width="24" height="24" viewBox="0 0 24 24" fill="none" xmlns="http://www.w3.org/2000/svg">
<path fill-rule="evenodd" clip-rule="evenodd" d="M21 15C21 19.9706 16.9706 24 12 24C7.02944 24 3 19.9706 3 15C3 10.0294 7.02944 6 12 6C16.9706 6 21 10.0294 21 15ZM6.58579 19L7.29289 18.2929L10.5858 15L7.29289 11.7071L6.58579 11L8 9.58579L8.70711 10.2929L12 13.5858L15.2929 10.2929L16 9.58579L17.4142 11L16.7071 11.7071L13.4142 15L16.7071 18.2929L17.4142 19L16 20.4142L15.2929 19.7071L12 16.4142L8.70711 19.7071L8 20.4142L6.58579 19Z" fill="#222222"/>
</svg>
