<svg width="96" height="106" viewBox="0 0 96 106" fill="none" xmlns="http://www.w3.org/2000/svg">
<path d="M95.7713 0H0.227783V105.82H95.7713V0Z" fill="#F2F1F1"/>
<path fill-rule="evenodd" clip-rule="evenodd" d="M0.461426 41.9014C0.461426 41.9014 51.9176 43.2631 87.6884 104.334C87.7822 104.495 87.7145 104.51 87.6884 104.632C87.633 104.896 87.633 105.206 87.6884 105.375C87.7561 105.583 87.7161 105.906 87.6884 105.97C87.6361 106.089 87.4392 105.819 86.7654 105.821C83.1747 105.827 75.7535 105.767 71.8429 105.821C60.0619 105.981 48.4593 105.524 48.4593 105.524C48.4593 105.524 42.1781 65.2766 0.461426 41.9014Z" fill="#231F20"/>
<path fill-rule="evenodd" clip-rule="evenodd" d="M12.461 46.807L18.4607 49.78L18.7684 49.3341L12.7687 46.2124L12.461 46.807Z" fill="#F2F1F1"/>
<path fill-rule="evenodd" clip-rule="evenodd" d="M26.1526 53.3476L25.845 54.0908L31.0755 57.8071L32.1524 57.0638L26.1526 53.3476Z" fill="#F2F1F1"/>
<path fill-rule="evenodd" clip-rule="evenodd" d="M37.8445 63.0098L42.6135 67.4693L43.8442 66.4287L38.9214 62.2665L37.8445 63.0098Z" fill="#F2F1F1"/>
<path fill-rule="evenodd" clip-rule="evenodd" d="M48.7671 73.5625L52.9208 78.3193L54.613 77.1301L49.9978 72.3733L48.7671 73.5625Z" fill="#F2F1F1"/>
<path fill-rule="evenodd" clip-rule="evenodd" d="M58.3051 85.0085L61.8434 90.0626L63.9972 88.8734L59.9973 83.8193L58.3051 85.0085Z" fill="#F2F1F1"/>
<path fill-rule="evenodd" clip-rule="evenodd" d="M66.7664 97.1978L69.997 102.847L73.3815 102.995L69.0739 96.1573L66.7664 97.1978Z" fill="#F2F1F1"/>
<path fill-rule="evenodd" clip-rule="evenodd" d="M42.7675 105.819H47.2289C47.2289 105.819 39.1477 62.7452 0.923194 43.3879C0.435523 43.1412 0.532442 43.2244 0.461676 43.2393C0.330912 43.2675 0.367833 43.4251 0.307836 43.3879C0.100153 43.2586 0.784738 43.2542 0.461676 43.2393C0.255531 43.2289 0.31399 43.327 0.307836 43.3879C0.301683 43.4548 0.243224 43.489 0.307836 43.5634C0.40014 43.6704 0.480136 43.7477 0.307836 43.6852C0.169381 43.6362 0.292452 43.6555 0.307836 43.6852C0.333989 43.7343 0.333989 43.8324 0.307836 43.8339C0.180149 43.8413 0.615515 43.9825 0.615515 43.9825C0.615515 43.9825 33.8171 60.8469 42.7675 105.821V105.819Z" fill="#231F20"/>
<path fill-rule="evenodd" clip-rule="evenodd" d="M41.3966 0.441477C77.392 0.0118785 90.6376 12.5074 95.722 41.8821C97.6111 52.796 89.4561 62.5742 83.8717 66.6874C82.4072 67.7666 79.2273 71.0027 76.6382 70.5493C71.5461 69.6559 58.3021 59.1389 56.4775 54.9529C58.6174 52.4958 61.5896 51.1668 63.4034 48.2696C65.4987 44.922 65.5633 40.0463 63.7111 36.5352C62.3465 33.9472 60.6527 31.6149 57.8636 30.445C52.8731 28.3535 43.6842 29.4431 38.0106 30.2964C31.9063 31.215 24.5666 30.3216 19.5438 29.1086C7.58121 26.2189 1.20918 18.883 0 5.49112C1.99991 6.94194 7.03969 5.64869 9.69496 5.04517C16.5285 3.49475 23.8159 2.60582 31.0863 1.33189C34.5231 1.03459 37.9599 0.737291 41.3966 0.439991V0.441477Z" fill="#8C8671"/>
</svg>
