<svg width="24" height="25" viewBox="0 0 24 25" fill="none" xmlns="http://www.w3.org/2000/svg">
<circle cx="12" cy="8.5" r="4" fill="#F2F1F1" stroke="#F2F1F1" stroke-width="1.2" stroke-linecap="round"/>
<path fill-rule="evenodd" clip-rule="evenodd" d="M15.591 16.4999C15.1397 16.3414 14.6706 16.2129 14.1888 16.1161C12.7543 15.8278 11.2457 15.8278 9.81123 16.1161C8.37727 16.4043 7.05549 16.973 5.98314 17.7773C4.91043 18.5818 4.11627 19.6012 3.70757 20.7451C3.59608 21.0572 3.75867 21.4005 4.07073 21.512C4.38278 21.6235 4.72613 21.4609 4.83761 21.1489C5.15583 20.2582 5.78989 19.4222 6.70314 18.7373C7.61677 18.052 8.76873 17.5496 10.0477 17.2926C10.8677 17.1278 11.7163 17.0687 12.5568 17.1153C12.9207 16.736 13.4328 16.4999 14 16.4999L15.591 16.4999Z" fill="#F2F1F1"/>
<path d="M18 14.5L18 22.5" stroke="#F2F1F1" stroke-width="1.2" stroke-linecap="round"/>
<path d="M22 18.5L14 18.5" stroke="#F2F1F1" stroke-width="1.2" stroke-linecap="round"/>
</svg>
