<svg width="23" height="20" viewBox="0 0 23 20" fill="none" xmlns="http://www.w3.org/2000/svg">
<g clip-path="url(#clip0_763_817)">
<path d="M16.9455 3.18481C16.7039 3.18481 16.5415 3.20756 16.4567 3.23031V4.73129C16.557 4.75337 16.6815 4.76173 16.8524 4.76173C17.4811 4.76173 17.8703 4.4523 17.8703 3.93213C17.8706 3.4638 17.5359 3.18481 16.9455 3.18481Z" fill="#F2F1F1"/>
<path d="M20.9497 0.252075H13.1439C12.5462 0.252075 12.062 0.69598 12.062 1.24359V8.39625C12.062 8.94385 12.5459 9.38776 13.1439 9.38776H20.9497C21.546 9.38776 22.0317 8.94385 22.0317 8.39625V1.24359C22.0317 0.69598 21.5464 0.252075 20.9497 0.252075ZM18.5621 5.10794C18.1581 5.47724 17.5597 5.6435 16.8597 5.6435C16.7042 5.6435 16.5653 5.63647 16.4571 5.62176V7.43886H15.2831V2.4231C15.6481 2.36288 16.161 2.31806 16.8834 2.31806C17.6138 2.31806 18.135 2.45387 18.4849 2.72517C18.8195 2.98141 19.0443 3.4039 19.0443 3.902C19.0439 4.39909 18.8723 4.82159 18.5621 5.10794Z" fill="#F2F1F1"/>
<path d="M18.8771 10.4041H2.1136L5.59184 4.5728C5.59184 4.5728 5.71765 4.33329 6.30431 4.33329H9.90319C9.90319 4.33329 10.757 4.38949 10.7256 3.81512C10.6939 3.51037 10.5212 3.30164 10.1493 3.30164C9.78255 3.30164 5.36124 3.30164 5.36124 3.30164C5.36124 3.30164 5.13582 3.31167 4.88937 3.7238C4.66946 4.08976 1.59415 9.2604 0.908225 10.4195C0.410496 10.5061 0.0278931 10.9788 0.0278931 11.5532V16.8456C0.0278931 17.4862 0.4946 17.9947 1.07057 17.9947H2.11291V20.5316C2.11291 20.8471 2.32282 21.1013 2.58478 21.1013H4.26617C4.52262 21.1013 4.73736 20.8471 4.73736 20.5316V17.9947H15.2355V20.5524C15.2355 20.8675 15.4447 21.1217 15.7022 21.1217H17.3622C17.6187 21.1217 17.8289 20.8675 17.8289 20.5524V17.9947H18.8764C19.4528 17.9947 19.9191 17.4862 19.9191 16.8456V11.5532C19.9198 10.9176 19.4534 10.4041 18.8771 10.4041ZM3.94768 15.9484C2.95326 15.9484 2.14669 15.1656 2.14669 14.2006C2.14669 13.2351 2.95291 12.4527 3.94768 12.4527C4.94245 12.4527 5.74833 13.2351 5.74833 14.2006C5.74833 15.1656 4.9421 15.9484 3.94768 15.9484ZM16.0534 15.9484C15.059 15.9484 14.2525 15.1656 14.2525 14.2006C14.2525 13.2351 15.059 12.4527 16.0534 12.4527C17.0479 12.4527 17.8538 13.2351 17.8538 14.2006C17.8538 15.1656 17.0479 15.9484 16.0534 15.9484Z" fill="#F2F1F1"/>
</g>
<defs>
<clipPath id="clip0_763_817">
<rect width="22.06" height="20" fill="white"/>
</clipPath>
</defs>
</svg>
