<svg width="18" height="17" viewBox="0 0 18 17" fill="none" xmlns="http://www.w3.org/2000/svg">
<path opacity="0.4" d="M12.3962 0.166504H15.2178C16.3864 0.166504 17.3333 1.12138 17.3333 2.29981V5.14527C17.3333 6.3237 16.3864 7.27858 15.2178 7.27858H12.3962C11.2276 7.27858 10.2808 6.3237 10.2808 5.14527V2.29981C10.2808 1.12138 11.2276 0.166504 12.3962 0.166504" fill="white"/>
<path fill-rule="evenodd" clip-rule="evenodd" d="M2.78194 0.166504H5.60358C6.77214 0.166504 7.71902 1.12138 7.71902 2.29981V5.14527C7.71902 6.3237 6.77214 7.27858 5.60358 7.27858H2.78194C1.61338 7.27858 0.666504 6.3237 0.666504 5.14527V2.29981C0.666504 1.12138 1.61338 0.166504 2.78194 0.166504ZM2.78194 9.7211H5.60358C6.77214 9.7211 7.71902 10.676 7.71902 11.8544V14.6999C7.71902 15.8775 6.77214 16.8332 5.60358 16.8332H2.78194C1.61338 16.8332 0.666504 15.8775 0.666504 14.6999V11.8544C0.666504 10.676 1.61338 9.7211 2.78194 9.7211ZM15.2177 9.7211H12.3961C11.2275 9.7211 10.2807 10.676 10.2807 11.8544V14.6999C10.2807 15.8775 11.2275 16.8332 12.3961 16.8332H15.2177C16.3863 16.8332 17.3332 15.8775 17.3332 14.6999V11.8544C17.3332 10.676 16.3863 9.7211 15.2177 9.7211Z" fill="white"/>
</svg>