<svg width="47" height="49" viewBox="0 0 47 49" fill="none" xmlns="http://www.w3.org/2000/svg">
<g clip-path="url(#clip0_1313_500)">
<path d="M37.2083 4.08337H9.79167C4.39254 4.08337 0 8.66283 0 14.2917V34.7084C0 40.3372 4.39254 44.9167 9.79167 44.9167H37.2083C42.6075 44.9167 47 40.3372 47 34.7084V14.2917C47 8.66283 42.6075 4.08337 37.2083 4.08337ZM43.0833 34.7084C43.0833 38.0853 40.4474 40.8334 37.2083 40.8334H9.79167C6.55258 40.8334 3.91667 38.0853 3.91667 34.7084V14.2917C3.91667 10.9148 6.55258 8.16671 9.79167 8.16671H37.2083C40.4474 8.16671 43.0833 10.9148 43.0833 14.2917V34.7084ZM31.7387 18.7977L26.2691 24.5L31.7387 30.2024C32.5044 31.0007 32.5044 32.291 31.7387 33.0893C31.3568 33.4875 30.8555 33.6875 30.3542 33.6875C29.8528 33.6875 29.3515 33.4875 28.9696 33.0893L23.5 27.387L18.0304 33.0893C17.6485 33.4875 17.1472 33.6875 16.6458 33.6875C16.1445 33.6875 15.6432 33.4875 15.2613 33.0893C14.4956 32.291 14.4956 31.0007 15.2613 30.2024L20.7309 24.5L15.2613 18.7977C14.4956 17.9994 14.4956 16.709 15.2613 15.9108C16.027 15.1125 17.2647 15.1125 18.0304 15.9108L23.5 21.6131L28.9696 15.9108C29.7353 15.1125 30.973 15.1125 31.7387 15.9108C32.5044 16.709 32.5044 17.9994 31.7387 18.7977Z" fill="#EF8B2E"/>
</g>
<defs>
<clipPath id="clip0_1313_500">
<rect width="47" height="49" fill="white"/>
</clipPath>
</defs>
</svg>
