<svg width="36" height="30" viewBox="0 0 36 30" fill="none" xmlns="http://www.w3.org/2000/svg">
<path d="M22.5 10C22.5 12.064 20.4747 14 17.625 14C14.7753 14 12.75 12.064 12.75 10C12.75 7.93601 14.7753 6 17.625 6C20.4747 6 22.5 7.93601 22.5 10Z" stroke="#F2F1F1" stroke-width="2" stroke-linecap="round"/>
<path d="M21.9804 9.9364C22.4062 9.30876 23.1386 8.81073 24.0507 8.60275C24.9625 8.39481 25.9304 8.5066 26.7309 8.89991C27.5298 9.29249 28.0609 9.91234 28.271 10.5797C28.4782 11.2378 28.3766 11.9453 27.9571 12.5636C27.5313 13.1912 26.7989 13.6893 25.8868 13.8973C24.975 14.1052 24.0071 13.9934 23.2066 13.6001C22.4077 13.2075 21.8766 12.5877 21.6665 11.9203C21.4593 11.2622 21.5609 10.5547 21.9804 9.9364L21.9804 9.9364Z" stroke="#F2F1F1" stroke-width="2"/>
<path d="M7.29287 9.9364C7.71865 9.30876 8.45113 8.81073 9.36316 8.60275C10.275 8.39481 11.2429 8.5066 12.0434 8.89991C12.8423 9.29249 13.3734 9.91234 13.5835 10.5797C13.7907 11.2378 13.6891 11.9453 13.2696 12.5636C12.8438 13.1912 12.1114 13.6893 11.1993 13.8973C10.2875 14.1052 9.31958 13.9934 8.51913 13.6001C7.72016 13.2075 7.1891 12.5877 6.97898 11.9203C6.77179 11.2622 6.87344 10.5547 7.29287 9.9364L7.29287 9.9364Z" stroke="#F2F1F1" stroke-width="2"/>
<path fill-rule="evenodd" clip-rule="evenodd" d="M24.7948 22.5H29.686C30.2962 22.5 30.7473 21.9593 30.5342 21.3876C29.9853 19.9143 28.5408 17.5 24.9687 17.5C23.5881 17.5 22.5253 17.8606 21.7092 18.3882C23.7417 19.464 24.5068 21.283 24.7948 22.5Z" fill="#103D3E"/>
<path d="M24.7948 22.5L23.8217 22.7303L24.0038 23.5H24.7948V22.5ZM30.5342 21.3876L31.4713 21.0384V21.0384L30.5342 21.3876ZM21.7092 18.3882L21.1664 17.5484L19.7341 18.4742L21.2414 19.272L21.7092 18.3882ZM29.686 21.5H24.7948V23.5H29.686V21.5ZM29.5972 21.7367C29.5906 21.7192 29.5835 21.6832 29.591 21.6381C29.5981 21.5952 29.6155 21.562 29.6326 21.5403C29.6657 21.4981 29.694 21.5 29.686 21.5V23.5C30.8527 23.5 31.975 22.3902 31.4713 21.0384L29.5972 21.7367ZM24.9687 18.5C26.5049 18.5 27.5217 19.0103 28.2166 19.635C28.9326 20.2786 29.3565 21.0909 29.5972 21.7367L31.4713 21.0384C31.163 20.211 30.5902 19.0794 29.5537 18.1476C28.4961 17.1969 27.0045 16.5 24.9687 16.5V18.5ZM22.2521 19.228C22.8999 18.8092 23.7728 18.5 24.9687 18.5V16.5C23.4034 16.5 22.1508 16.912 21.1664 17.5484L22.2521 19.228ZM21.2414 19.272C22.9224 20.1617 23.5698 21.666 23.8217 22.7303L25.7679 22.2697C25.4438 20.9 24.561 18.7662 22.177 17.5043L21.2414 19.272Z" fill="#F2F1F1"/>
<path d="M13.5407 18.3881L14.0085 19.272L15.5158 18.4742L14.0835 17.5483L13.5407 18.3881ZM4.71566 21.3876L5.65273 21.7367L5.65273 21.7367L4.71566 21.3876ZM10.4551 22.5V23.5H11.246L11.4282 22.7303L10.4551 22.5ZM10.2813 18.5C11.4772 18.5 12.35 18.8092 12.9978 19.228L14.0835 17.5483C13.0991 16.912 11.8465 16.5 10.2813 16.5V18.5ZM5.65273 21.7367C5.89337 21.0909 6.3173 20.2786 7.03332 19.635C7.72824 19.0103 8.74503 18.5 10.2813 18.5V16.5C8.24539 16.5 6.75386 17.1969 5.69624 18.1476C4.65973 19.0794 4.08691 20.2109 3.7786 21.0384L5.65273 21.7367ZM5.56385 21.5C5.55585 21.5 5.58418 21.4981 5.6173 21.5403C5.63442 21.562 5.65175 21.5952 5.65889 21.6381C5.66643 21.6832 5.65925 21.7192 5.65273 21.7367L3.7786 21.0384C3.27493 22.3902 4.39715 23.5 5.56385 23.5V21.5ZM10.4551 21.5H5.56385V23.5H10.4551V21.5ZM11.4282 22.7303C11.6801 21.666 12.3275 20.1617 14.0085 19.272L13.0728 17.5043C10.6889 18.7662 9.80609 20.9 9.48195 22.2697L11.4282 22.7303Z" fill="#F2F1F1"/>
<path d="M17.625 17.5C23.1175 17.5 24.5021 20.9961 24.8511 22.7587C24.9584 23.3005 24.521 23.75 23.9688 23.75H11.2813C10.729 23.75 10.2916 23.3005 10.3989 22.7587C10.7479 20.9961 12.1325 17.5 17.625 17.5Z" stroke="#F2F1F1" stroke-width="2" stroke-linecap="round"/>
</svg>
