<svg width="23" height="20" viewBox="0 0 23 20" fill="none" xmlns="http://www.w3.org/2000/svg">
<g clip-path="url(#clip0_364_1041)">
<path d="M16.9456 3.18481C16.7039 3.18481 16.5416 3.20756 16.4568 3.23031V4.73129C16.5571 4.75337 16.6815 4.76173 16.8525 4.76173C17.4812 4.76173 17.8704 4.4523 17.8704 3.93213C17.8707 3.4638 17.536 3.18481 16.9456 3.18481Z" fill="black"/>
<path d="M20.9498 0.252075H13.144C12.5463 0.252075 12.062 0.69598 12.062 1.24359V8.39625C12.062 8.94385 12.546 9.38776 13.144 9.38776H20.9498C21.5461 9.38776 22.0318 8.94385 22.0318 8.39625V1.24359C22.0318 0.69598 21.5464 0.252075 20.9498 0.252075ZM18.5621 5.10794C18.1582 5.47724 17.5598 5.6435 16.8597 5.6435C16.7043 5.6435 16.5654 5.63647 16.4571 5.62176V7.43886H15.2831V2.4231C15.6481 2.36288 16.161 2.31806 16.8835 2.31806C17.6139 2.31806 18.1351 2.45387 18.4849 2.72517C18.8196 2.98141 19.0443 3.4039 19.0443 3.902C19.044 4.39909 18.8723 4.82159 18.5621 5.10794Z" fill="black"/>
<path d="M18.8772 10.4041H2.11366L5.5919 4.5728C5.5919 4.5728 5.71771 4.33329 6.30437 4.33329H9.90325C9.90325 4.33329 10.757 4.38949 10.7257 3.81512C10.694 3.51037 10.5213 3.30164 10.1494 3.30164C9.78261 3.30164 5.3613 3.30164 5.3613 3.30164C5.3613 3.30164 5.13588 3.31167 4.88943 3.7238C4.66952 4.08976 1.59421 9.2604 0.908286 10.4195C0.410557 10.5061 0.0279541 10.9788 0.0279541 11.5532V16.8456C0.0279541 17.4862 0.494661 17.9947 1.07063 17.9947H2.11297V20.5316C2.11297 20.8471 2.32288 21.1013 2.58485 21.1013H4.26623C4.52268 21.1013 4.73742 20.8471 4.73742 20.5316V17.9947H15.2356V20.5524C15.2356 20.8675 15.4448 21.1217 15.7023 21.1217H17.3623C17.6187 21.1217 17.829 20.8675 17.829 20.5524V17.9947H18.8765C19.4528 17.9947 19.9192 17.4862 19.9192 16.8456V11.5532C19.9199 10.9176 19.4535 10.4041 18.8772 10.4041ZM3.94774 15.9484C2.95332 15.9484 2.14675 15.1656 2.14675 14.2006C2.14675 13.2351 2.95297 12.4527 3.94774 12.4527C4.94251 12.4527 5.74839 13.2351 5.74839 14.2006C5.74839 15.1656 4.94216 15.9484 3.94774 15.9484ZM16.0535 15.9484C15.0591 15.9484 14.2525 15.1656 14.2525 14.2006C14.2525 13.2351 15.0591 12.4527 16.0535 12.4527C17.0479 12.4527 17.8538 13.2351 17.8538 14.2006C17.8538 15.1656 17.0479 15.9484 16.0535 15.9484Z" fill="black"/>
</g>
<defs>
<clipPath id="clip0_364_1041">
<rect width="22.06" height="20" fill="white"/>
</clipPath>
</defs>
</svg>
