<svg width="36" height="30" viewBox="0 0 36 30" fill="none" xmlns="http://www.w3.org/2000/svg">
<path d="M22.6364 15C22.6364 17.0591 20.6016 19 17.7273 19C14.8529 19 12.8182 17.0591 12.8182 15C12.8182 12.9409 14.8529 11 17.7273 11C20.6016 11 22.6364 12.9409 22.6364 15Z" stroke="#231F20" stroke-width="2"/>
<path d="M29.9667 13.8164C30.4661 14.3377 30.7158 14.5983 30.7158 15C30.7158 15.4017 30.4661 15.6623 29.9667 16.1836C27.9421 18.2968 23.2243 22.5 17.7273 22.5C12.2303 22.5 7.51246 18.2968 5.48786 16.1836C4.98848 15.6623 4.73879 15.4017 4.73879 15C4.73879 14.5983 4.98848 14.3377 5.48786 13.8164C7.51246 11.7032 12.2303 7.5 17.7273 7.5C23.2243 7.5 27.9421 11.7032 29.9667 13.8164Z" stroke="#231F20" stroke-width="2"/>
</svg>
