<svg width="615" height="344" viewBox="0 0 615 344" fill="none" xmlns="http://www.w3.org/2000/svg">
<g filter="url(#filter0_d_1526_644)">
<path d="M128.15 98.719C118.265 99.5463 107.492 99.822 96.7781 99.4773C83.4008 98.9948 70.2603 96.513 57.9484 90.3775C49.9576 86.4481 43.3281 80.1058 38.1784 71.6264C31.9041 61.2857 29.0038 49.7042 27.8199 37.2954C27.5832 34.6068 27.6424 33.3659 30.7795 33.5727C38.5336 34.1242 46.1693 32.125 53.805 30.8152C62.3878 29.3675 71.0297 27.9198 79.6717 26.7479C95.5942 24.4729 111.576 23.3699 127.617 24.1972C147.505 25.3002 166.861 29.2986 184.559 40.7422C193.319 46.3952 200.659 54.0473 207.111 63.0781C215.043 74.315 219.305 87.4821 223.389 100.856C227.295 113.541 229.426 126.501 229.249 140.013C229.071 153.525 226.112 166.002 220.015 177.515C213.03 190.751 203.382 200.471 191.603 207.71C187.696 210.123 184.382 209.847 180.712 207.02C173.372 201.299 166.565 194.887 160.172 187.787C155.259 182.41 150.465 176.826 146.144 170.759C144.901 168.967 143.895 167.657 146.499 165.933C151.708 162.418 156.029 157.661 159.403 151.801C165.026 142.15 166.151 132.085 162.599 120.917C158.337 107.612 150.406 100.718 138.449 99.3394C135.193 98.9948 132.115 98.9948 128.15 98.719Z" fill="#8C8671"/>
</g>
<g filter="url(#filter1_d_1526_644)">
<path d="M68.1295 170.346C68.0111 173.172 70.0828 174.551 71.3258 176.274C75.1733 181.445 78.1329 187.235 81.6844 192.612C85.591 198.541 88.6689 205.021 91.9245 211.364C95.476 218.188 98.258 225.634 101.158 233.01C103.822 239.835 106.426 246.798 108.557 253.898C109.682 257.759 110.511 261.757 111.635 265.618C113.233 271.202 114.595 276.924 115.779 282.645C116.726 287.195 117.199 291.814 118.028 296.433C118.383 298.225 117.91 298.708 116.489 298.639C115.424 298.57 114.299 298.639 113.233 298.639C107.965 298.639 107.729 298.639 107.255 292.572C106.722 284.645 104.887 277.061 104 269.202C103.408 264.032 100.922 259.138 99.797 253.967C98.8499 249.624 97.3109 245.488 96.3638 241.214C95.0616 235.492 92.1613 230.666 90.2079 225.358C87.13 216.948 83.7561 208.744 79.731 200.954C77.7777 197.231 75.8244 193.44 73.4567 189.924C71.0891 186.408 69.3133 182.272 66.8865 178.756C63.039 173.172 59.5467 167.037 55.0482 162.142C47.5308 154.007 40.6054 145.183 32.3186 138.083C29.951 136.083 27.4649 134.153 25.0381 132.292C24.1502 131.602 23.2031 130.913 23.9134 129.672C24.5053 128.569 25.4524 129.603 25.9259 130.086C30.898 134.705 36.758 137.876 41.3749 143.115C42.9731 144.976 44.9264 146.355 46.7022 147.734C50.1353 150.423 52.0294 155.179 56.232 156.627C56.8239 158.764 57.9486 160.143 60.4938 160.901C58.9548 158.833 58.0669 157.11 56.232 156.627C53.8643 151.594 49.7209 148.492 46.1102 144.976C39.6584 138.772 33.0881 132.568 25.8076 127.604C25.3932 127.328 24.9197 126.915 25.0972 126.294C25.3932 125.467 26.0443 125.674 26.6362 125.812C38.3562 128.087 49.7801 131.809 60.9081 136.566C67.8927 139.53 74.4038 143.736 81.2108 147.182C85.4726 149.32 89.5568 152.56 93.6411 155.455C99.4418 159.522 105.361 163.383 111.103 167.657C113.944 169.725 116.607 172.138 119.153 174.689C123.592 179.17 128.505 183.168 132.885 187.718C137.739 192.75 142.711 197.714 147.209 203.091C150.524 207.089 153.957 210.95 157.035 215.224C160.587 220.188 164.434 224.875 167.63 230.115C172.307 237.56 177.575 244.523 181.659 252.52C183.671 256.38 186.276 259.896 188.111 263.894C191.366 271.133 195.983 277.406 198.647 284.989C200.186 289.332 202.494 293.331 204.744 297.329C205.75 299.122 205.631 300.983 205.631 302.844C205.691 304.43 204.329 304.223 203.382 304.223C200.245 304.223 197.108 303.671 193.971 303.465C180.83 302.775 167.69 302.086 154.549 301.328C146.44 300.845 138.331 300.156 130.221 299.328C127.558 299.053 124.953 298.639 122.29 298.708C120.869 298.708 120.159 298.019 120.04 296.295C119.685 290.849 119.034 285.334 117.91 280.233C116.785 274.924 116.667 269.065 113.766 264.17C113.056 262.998 113.293 261.137 112.937 259.62C111.576 253.278 108.853 247.556 106.841 241.558C104.591 235.009 102.342 228.46 99.3234 222.394C96.3047 216.327 93.2859 210.192 90.2079 204.125C86.5381 196.887 82.0987 190.406 77.8961 183.651C75.1141 178.687 72.0953 173.93 68.1295 170.346C67.8335 168.415 66.6497 167.588 65.4067 166.83C65.6434 168.76 66.5313 169.932 68.1295 170.346ZM171.537 293.606C172.247 293.4 173.313 294.158 173.786 292.986C174.319 291.814 173.194 291.194 172.78 290.435C172.484 289.884 172.07 289.263 172.011 288.643C171.537 284.3 168.4 281.611 167.098 277.682C166.21 275.062 164.493 277.199 163.132 277.751C161.475 278.371 162.185 279.543 162.599 280.715C163.783 283.955 165.204 287.057 166.565 290.229C167.69 292.71 169.11 293.675 171.537 293.606ZM155.555 255.553C155.378 255.277 155.259 254.932 155.082 254.657C152.951 250.934 150.583 247.487 148.808 243.489C147.92 241.489 146.736 244.178 145.552 244.178C144.783 244.178 144.131 245.419 144.783 246.246C147.387 249.624 148.571 253.967 150.938 257.483C151.767 258.655 152.477 258.241 153.247 257.69C154.076 257.276 155.319 257.138 155.555 255.553ZM137.147 224.6C136.969 224.186 136.851 223.772 136.673 223.635C133.536 220.67 131.76 216.327 128.742 213.225C127.558 211.984 127.203 212.191 126.256 213.225C125.368 214.259 125.072 214.879 126.078 216.258C128.327 219.223 130.281 222.532 132.352 225.703C132.767 226.392 132.707 227.909 133.773 227.357C135.016 226.668 136.022 225.565 137.147 224.6ZM112.109 197.783C113.056 197.852 114.772 195.439 114.24 194.887C111.398 191.578 108.557 188.269 105.657 185.098C105.183 184.547 104.296 184.685 103.763 185.305C102.934 186.201 103.822 186.684 104.236 187.235C106.782 190.475 109.564 193.578 111.517 197.369C111.635 197.507 111.931 197.645 112.109 197.783ZM78.488 159.591C78.0145 160.832 78.0737 161.935 78.8432 162.28C81.6252 163.521 82.9866 166.761 85.5318 168.277C86.5973 168.898 87.0116 170.69 88.5506 170.69C89.4384 170.69 90.1487 170.759 90.5631 169.863C91.2142 168.622 89.9712 168.553 89.5568 168.209C86.2421 164.968 82.513 162.28 78.488 159.591ZM60.257 145.942C57.5342 143.942 54.8114 141.943 52.0886 140.013C51.6151 139.668 51.0823 139.048 50.5496 139.875C50.3128 140.22 50.372 140.909 50.7864 141.047C54.1011 142.357 56.5871 145.597 60.257 145.942ZM63.2758 147.941C62.6247 147.596 62.2103 147.182 61.7368 147.113C61.2633 147.045 61.0857 147.527 61.1449 148.01C61.2041 148.699 61.6776 148.975 62.2103 148.768C62.5063 148.699 62.7431 148.354 63.2758 147.941Z" fill="black"/>
</g>
<g filter="url(#filter2_d_1526_644)">
<path d="M494.782 266.445C494.782 256.104 494.604 245.764 494.841 235.423C495.078 224.806 497.209 214.673 502.595 205.986C506.857 199.161 511.948 193.302 518.991 189.648C529.409 184.271 539.768 184.409 549.83 189.165C555.394 191.785 560.366 196.128 563.977 202.539C566.581 207.227 569.304 211.777 571.08 217.016C572.974 222.669 573.921 228.667 574.099 234.733C574.276 241.972 573.921 249.21 574.217 256.449C574.809 270.03 574.631 283.679 574.75 297.26C574.75 302.637 573.803 303.533 569.304 302.155C562.556 300.155 557.288 295.881 552.79 289.47C549.534 284.782 547.699 279.888 547.403 274.028C547.344 272.649 546.752 272.305 545.687 272.305C538.465 272.305 531.303 272.305 524.082 272.305C522.543 272.305 522.128 273.27 522.01 274.924C521.477 282.438 518.636 288.85 513.842 293.744C509.461 298.294 504.43 301.672 498.452 302.637C495.729 303.051 494.604 301.948 494.664 298.501C494.9 287.816 494.782 277.13 494.782 266.445ZM534.5 224.737C525.502 224.944 523.253 228.874 522.069 238.042C521.833 240.042 521.833 241.351 524.496 240.731C531.185 239.214 537.933 239.283 544.621 240.662C546.752 241.076 546.811 240.248 546.811 238.318C546.93 229.701 542.49 224.806 534.5 224.737Z" fill="black"/>
</g>
<g filter="url(#filter3_d_1526_644)">
<path d="M220.192 267.893C220.192 257.759 220.015 247.694 220.252 237.56C220.488 228.874 221.435 220.119 225.224 212.398C228.124 206.538 231.143 200.471 235.997 196.404C242.034 191.372 248.308 186.615 256.358 187.304C261.094 187.718 265.888 186.408 270.564 187.994C279.561 191.027 285.954 197.714 291.281 206.538C297.023 216.051 299.213 226.599 299.45 237.767C299.687 248.935 299.272 260.103 299.568 271.271C299.805 280.577 300.042 289.884 300.101 299.191C300.101 302.155 299.45 302.913 296.609 302.775C285.244 302.017 279.147 293.607 274.471 283.059C273.642 281.267 272.873 278.992 273.346 276.579C273.701 274.649 272.991 273.546 271.156 273.546C263.876 273.615 256.536 273.615 249.255 273.546C247.776 273.546 247.48 274.304 247.42 275.821C247.006 288.023 235.582 301.741 225.164 303.12C220.784 303.671 220.133 303.189 220.133 298.087C220.192 288.16 220.192 278.027 220.192 267.893ZM272.281 239.973C271.63 231.631 270.446 229.219 264.823 226.668C257.779 223.428 247.361 227.15 247.42 240.111C247.42 241.903 247.539 242.73 249.551 242.248C256.24 240.731 263.047 240.593 269.736 242.041C272.103 242.524 272.636 241.765 272.281 239.973Z" fill="black"/>
</g>
<g filter="url(#filter4_d_1526_644)">
<path d="M408.954 267.341C408.954 257.828 408.954 248.314 408.954 238.732C408.954 229.839 409.901 220.946 413.571 213.156C416.945 205.849 420.556 198.61 427.244 193.991C431.684 190.958 435.886 187.511 440.977 186.753C450.27 185.374 459.504 185.443 467.85 191.647C475.367 197.231 480.457 205.297 484.187 214.673C487.442 222.876 488.33 231.493 488.389 240.317C488.507 259.62 488.744 278.923 488.981 298.294C489.04 302.637 488.922 302.913 485.193 302.637C480.221 302.362 476.077 299.742 472.289 296.157C464.417 288.85 460.865 279.336 461.102 267.686C461.279 258.034 461.161 248.383 461.102 238.732C461.102 232.665 458.734 227.978 454.768 226.392C449.204 224.117 443.7 223.634 439.201 229.012C436.833 231.838 436.36 235.905 436.301 239.766C436.241 250.589 436.36 261.343 436.241 272.167C436.182 279.061 434.525 285.058 430.559 290.642C426.12 296.915 420.733 300.707 414.222 302.982C410.079 304.43 408.954 303.396 408.954 298.432C408.954 288.022 408.954 277.682 408.954 267.341Z" fill="black"/>
</g>
<g filter="url(#filter5_d_1526_644)">
<path d="M340.411 263.205C340.411 277.268 340.055 291.332 343.962 304.912C344.732 307.532 344.199 307.877 341.831 307.67C335.853 307.187 330.23 305.326 326.086 300.431C321.292 294.71 317.504 288.023 316.024 279.888C314.84 273.339 315.017 266.79 314.958 260.172C314.781 248.521 315.432 236.802 314.189 225.22C313.597 219.705 314.426 214.052 312.058 208.675C310.46 205.09 311.052 204.332 314.366 203.091C319.161 201.23 329.046 204.125 331.828 208.537C335.971 215.086 338.99 222.256 339.878 230.597C340.411 235.285 340.233 239.973 340.351 244.661C340.351 245.281 340.115 246.177 340.825 246.522C341.476 246.867 341.89 246.108 342.305 245.626C347.395 239.628 352.308 233.424 357.635 227.702C363.555 221.291 367.639 213.225 373.025 206.4C374.15 204.952 373.972 202.746 375.274 201.299C376.34 200.058 377.109 199.782 378.234 201.023C382.792 205.986 386.225 211.777 387.054 219.085C387.823 225.91 384.804 231.08 380.838 235.699C376.162 241.076 371.19 245.97 365.981 250.658C364.442 252.037 363.91 252.864 365.745 254.932C374.268 264.308 382.91 273.477 391.138 283.128C394.157 286.713 397.767 289.884 402.266 291.263C405.225 292.159 405.403 292.848 403.39 295.537C400.194 299.742 396.051 302.637 391.315 303.258C380.483 304.705 371.427 301.052 364.146 290.987C357.043 281.198 349.349 272.029 341.18 263.412C341.062 263.274 340.825 263.274 340.411 263.205Z" fill="black"/>
</g>
<defs>
<filter id="filter0_d_1526_644" x="23.7356" y="23.9233" width="209.523" height="193.423" filterUnits="userSpaceOnUse" color-interpolation-filters="sRGB">
<feFlood flood-opacity="0" result="BackgroundImageFix"/>
<feColorMatrix in="SourceAlpha" type="matrix" values="0 0 0 0 0 0 0 0 0 0 0 0 0 0 0 0 0 0 127 0" result="hardAlpha"/>
<feOffset dy="4"/>
<feGaussianBlur stdDeviation="2"/>
<feComposite in2="hardAlpha" operator="out"/>
<feColorMatrix type="matrix" values="0 0 0 0 0 0 0 0 0 0 0 0 0 0 0 0 0 0 0.25 0"/>
<feBlend mode="normal" in2="BackgroundImageFix" result="effect1_dropShadow_1526_644"/>
<feBlend mode="normal" in="SourceGraphic" in2="effect1_dropShadow_1526_644" result="shape"/>
</filter>
<filter id="filter1_d_1526_644" x="19.6646" y="125.683" width="189.971" height="186.549" filterUnits="userSpaceOnUse" color-interpolation-filters="sRGB">
<feFlood flood-opacity="0" result="BackgroundImageFix"/>
<feColorMatrix in="SourceAlpha" type="matrix" values="0 0 0 0 0 0 0 0 0 0 0 0 0 0 0 0 0 0 127 0" result="hardAlpha"/>
<feOffset dy="4"/>
<feGaussianBlur stdDeviation="2"/>
<feComposite in2="hardAlpha" operator="out"/>
<feColorMatrix type="matrix" values="0 0 0 0 0 0 0 0 0 0 0 0 0 0 0 0 0 0 0.25 0"/>
<feBlend mode="normal" in2="BackgroundImageFix" result="effect1_dropShadow_1526_644"/>
<feBlend mode="normal" in="SourceGraphic" in2="effect1_dropShadow_1526_644" result="shape"/>
</filter>
<filter id="filter2_d_1526_644" x="490.661" y="185.605" width="88.0884" height="125.125" filterUnits="userSpaceOnUse" color-interpolation-filters="sRGB">
<feFlood flood-opacity="0" result="BackgroundImageFix"/>
<feColorMatrix in="SourceAlpha" type="matrix" values="0 0 0 0 0 0 0 0 0 0 0 0 0 0 0 0 0 0 127 0" result="hardAlpha"/>
<feOffset dy="4"/>
<feGaussianBlur stdDeviation="2"/>
<feComposite in2="hardAlpha" operator="out"/>
<feColorMatrix type="matrix" values="0 0 0 0 0 0 0 0 0 0 0 0 0 0 0 0 0 0 0.25 0"/>
<feBlend mode="normal" in2="BackgroundImageFix" result="effect1_dropShadow_1526_644"/>
<feBlend mode="normal" in="SourceGraphic" in2="effect1_dropShadow_1526_644" result="shape"/>
</filter>
<filter id="filter3_d_1526_644" x="216.128" y="187.185" width="87.9724" height="124.113" filterUnits="userSpaceOnUse" color-interpolation-filters="sRGB">
<feFlood flood-opacity="0" result="BackgroundImageFix"/>
<feColorMatrix in="SourceAlpha" type="matrix" values="0 0 0 0 0 0 0 0 0 0 0 0 0 0 0 0 0 0 127 0" result="hardAlpha"/>
<feOffset dy="4"/>
<feGaussianBlur stdDeviation="2"/>
<feComposite in2="hardAlpha" operator="out"/>
<feColorMatrix type="matrix" values="0 0 0 0 0 0 0 0 0 0 0 0 0 0 0 0 0 0 0.25 0"/>
<feBlend mode="normal" in2="BackgroundImageFix" result="effect1_dropShadow_1526_644"/>
<feBlend mode="normal" in="SourceGraphic" in2="effect1_dropShadow_1526_644" result="shape"/>
</filter>
<filter id="filter4_d_1526_644" x="404.954" y="186.027" width="88.0361" height="125.556" filterUnits="userSpaceOnUse" color-interpolation-filters="sRGB">
<feFlood flood-opacity="0" result="BackgroundImageFix"/>
<feColorMatrix in="SourceAlpha" type="matrix" values="0 0 0 0 0 0 0 0 0 0 0 0 0 0 0 0 0 0 127 0" result="hardAlpha"/>
<feOffset dy="4"/>
<feGaussianBlur stdDeviation="2"/>
<feComposite in2="hardAlpha" operator="out"/>
<feColorMatrix type="matrix" values="0 0 0 0 0 0 0 0 0 0 0 0 0 0 0 0 0 0 0.25 0"/>
<feBlend mode="normal" in2="BackgroundImageFix" result="effect1_dropShadow_1526_644"/>
<feBlend mode="normal" in="SourceGraphic" in2="effect1_dropShadow_1526_644" result="shape"/>
</filter>
<filter id="filter5_d_1526_644" x="307.208" y="200.219" width="101.517" height="115.501" filterUnits="userSpaceOnUse" color-interpolation-filters="sRGB">
<feFlood flood-opacity="0" result="BackgroundImageFix"/>
<feColorMatrix in="SourceAlpha" type="matrix" values="0 0 0 0 0 0 0 0 0 0 0 0 0 0 0 0 0 0 127 0" result="hardAlpha"/>
<feOffset dy="4"/>
<feGaussianBlur stdDeviation="2"/>
<feComposite in2="hardAlpha" operator="out"/>
<feColorMatrix type="matrix" values="0 0 0 0 0 0 0 0 0 0 0 0 0 0 0 0 0 0 0.25 0"/>
<feBlend mode="normal" in2="BackgroundImageFix" result="effect1_dropShadow_1526_644"/>
<feBlend mode="normal" in="SourceGraphic" in2="effect1_dropShadow_1526_644" result="shape"/>
</filter>
</defs>
</svg>
