<svg width="24" height="25" viewBox="0 0 24 25" fill="none" xmlns="http://www.w3.org/2000/svg">
<path fill-rule="evenodd" clip-rule="evenodd" d="M4.28571 15.9286C1.92625 15.9286 0 17.8548 0 20.2143C0 22.5738 1.92625 24.5 4.28571 24.5H16.2857C18.6451 24.5 20.5714 22.5738 20.5714 20.2143C20.5714 17.8548 18.6451 15.9286 16.2857 15.9286H4.28571ZM4.28571 17.6429H16.2857C17.7251 17.6429 18.8571 18.7749 18.8571 20.2143C18.8571 21.6537 17.7251 22.7857 16.2857 22.7857H4.28571C2.84631 22.7857 1.71428 21.6537 1.71428 20.2143C1.71428 18.7749 2.84631 17.6429 4.28571 17.6429Z" fill="black"/>
<path fill-rule="evenodd" clip-rule="evenodd" d="M18 8.21423C17.7726 8.21423 17.5546 8.30453 17.3939 8.46527C17.2331 8.62602 17.1428 8.84405 17.1428 9.07138C17.1428 9.2987 17.2331 9.51671 17.3939 9.67746C17.5546 9.8382 17.7726 9.92852 18 9.92852C18.2273 9.92852 18.4453 9.8382 18.6061 9.67746C18.7668 9.51671 18.8571 9.2987 18.8571 9.07138C18.8571 8.84405 18.7668 8.62602 18.6061 8.46527C18.4453 8.30453 18.2273 8.21423 18 8.21423Z" fill="black"/>
<path fill-rule="evenodd" clip-rule="evenodd" d="M18 3.07141C17.7726 3.07141 17.5546 3.1617 17.3939 3.32245C17.2331 3.48319 17.1428 3.70123 17.1428 3.92855V6.49998C17.1428 6.72731 17.2331 6.94532 17.3939 7.10606C17.5546 7.26681 17.7726 7.35713 18 7.35713C18.2273 7.35713 18.4453 7.26681 18.6061 7.10606C18.7668 6.94532 18.8571 6.72731 18.8571 6.49998V3.92855C18.8571 3.70123 18.7668 3.48319 18.6061 3.32245C18.4453 3.1617 18.2273 3.07141 18 3.07141Z" fill="black"/>
<path fill-rule="evenodd" clip-rule="evenodd" d="M18 0.5C15.7454 0.5 13.7749 1.75607 12.75 3.60379C11.9784 3.25631 11.1395 3.07132 10.2858 3.07143C6.9822 3.07143 4.28577 5.76788 4.28577 9.07143C4.28577 12.375 6.9822 15.0714 10.2858 15.0714C10.2863 15.0714 10.2869 15.0714 10.2875 15.0714C12.4915 15.0654 14.49 13.8509 15.5291 11.9643C16.2836 12.3077 17.1198 12.5 18.0001 12.5C21.3036 12.5 24.0001 9.80356 24.0001 6.5C24.0001 3.19646 21.3036 0.5 18 0.5ZM18 2.21429C20.3771 2.21429 22.2857 4.12292 22.2857 6.5C22.2857 8.87709 20.3771 10.7857 18 10.7857C17.1564 10.7857 16.3728 10.5442 15.7115 10.1278C15.6487 10.0701 15.5776 10.0222 15.5006 9.98549C14.4176 9.20973 13.7143 7.94182 13.7143 6.5C13.7143 6.05111 13.7838 5.61838 13.9102 5.21261C13.9539 5.13206 13.9844 5.04502 14.0006 4.9548C14.6173 3.3476 16.1687 2.21429 18 2.21429ZM10.2858 4.78571C10.9313 4.78563 11.5653 4.93181 12.1423 5.20926C12.0505 5.62525 12 6.05717 12 6.5C12 8.30729 12.809 9.93169 14.0809 11.0335C13.3567 12.4426 11.9047 13.3521 10.2858 13.3571C7.90868 13.3571 6.00005 11.4485 6.00005 9.07143C6.00005 6.69435 7.90868 4.78571 10.2858 4.78571Z" fill="black"/>
</svg>
