<svg width="20" height="21" viewBox="0 0 20 21" fill="none" xmlns="http://www.w3.org/2000/svg">
<path opacity="0.4" d="M13.3962 2.16675H16.2178C17.3864 2.16675 18.3333 3.12162 18.3333 4.30005V7.14552C18.3333 8.32395 17.3864 9.27882 16.2178 9.27882H13.3962C12.2276 9.27882 11.2808 8.32395 11.2808 7.14552V4.30005C11.2808 3.12162 12.2276 2.16675 13.3962 2.16675Z" fill="black"/>
<path fill-rule="evenodd" clip-rule="evenodd" d="M3.78206 2.16675H6.6037C7.77226 2.16675 8.71914 3.12162 8.71914 4.30005V7.14552C8.71914 8.32395 7.77226 9.27882 6.6037 9.27882H3.78206C2.61351 9.27882 1.66663 8.32395 1.66663 7.14552V4.30005C1.66663 3.12162 2.61351 2.16675 3.78206 2.16675ZM3.78206 11.7213H6.6037C7.77226 11.7213 8.71914 12.6762 8.71914 13.8546V16.7001C8.71914 17.8777 7.77226 18.8334 6.6037 18.8334H3.78206C2.61351 18.8334 1.66663 17.8777 1.66663 16.7001V13.8546C1.66663 12.6762 2.61351 11.7213 3.78206 11.7213ZM16.2179 11.7213H13.3962C12.2277 11.7213 11.2808 12.6762 11.2808 13.8546V16.7001C11.2808 17.8777 12.2277 18.8334 13.3962 18.8334H16.2179C17.3864 18.8334 18.3333 17.8777 18.3333 16.7001V13.8546C18.3333 12.6762 17.3864 11.7213 16.2179 11.7213Z" fill="black"/>
</svg>
