<svg width="20" height="21" viewBox="0 0 20 21" fill="none" xmlns="http://www.w3.org/2000/svg">
<path opacity="0.4" d="M13.3963 2.16663H16.2179C17.3865 2.16663 18.3333 3.1215 18.3333 4.29993V7.1454C18.3333 8.32382 17.3865 9.2787 16.2179 9.2787H13.3963C12.2277 9.2787 11.2808 8.32382 11.2808 7.1454V4.29993C11.2808 3.1215 12.2277 2.16663 13.3963 2.16663Z" fill="#F2F1F1"/>
<path fill-rule="evenodd" clip-rule="evenodd" d="M3.7821 2.16663H6.60374C7.7723 2.16663 8.71918 3.1215 8.71918 4.29993V7.1454C8.71918 8.32382 7.7723 9.2787 6.60374 9.2787H3.7821C2.61355 9.2787 1.66667 8.32382 1.66667 7.1454V4.29993C1.66667 3.1215 2.61355 2.16663 3.7821 2.16663ZM3.7821 11.7212H6.60374C7.7723 11.7212 8.71918 12.6761 8.71918 13.8545V16.7C8.71918 17.8776 7.7723 18.8333 6.60374 18.8333H3.7821C2.61355 18.8333 1.66667 17.8776 1.66667 16.7V13.8545C1.66667 12.6761 2.61355 11.7212 3.7821 11.7212ZM16.2179 11.7212H13.3963C12.2277 11.7212 11.2808 12.6761 11.2808 13.8545V16.7C11.2808 17.8776 12.2277 18.8333 13.3963 18.8333H16.2179C17.3865 18.8333 18.3333 17.8776 18.3333 16.7V13.8545C18.3333 12.6761 17.3865 11.7212 16.2179 11.7212Z" fill="#F2F1F1"/>
</svg>
