<svg width="23" height="21" viewBox="0 0 23 21" fill="none" xmlns="http://www.w3.org/2000/svg">
<path d="M18.751 6.261C19.1409 6.26058 19.5147 6.11386 19.7904 5.85303C20.0661 5.59219 20.2212 5.23854 20.2217 4.86967V4.52183H22.06V2.26092C22.0596 1.96829 21.9479 1.68557 21.7454 1.46437C21.5429 1.24318 21.2631 1.09828 20.957 1.05612V1.0435H17.9691C17.8872 0.745029 17.703 0.480686 17.4453 0.291862C17.1876 0.103038 16.871 0.000393163 16.545 0H7.721C7.33109 0.000418308 6.95728 0.147139 6.68157 0.407974C6.40586 0.668809 6.25078 1.02246 6.25033 1.39133V6.95667H2.57367C2.28124 6.95698 2.00088 7.06702 1.7941 7.26265C1.58732 7.45828 1.471 7.72351 1.47067 8.00017V18.0873H0V19.8265C0.000334503 20.1032 0.11665 20.3684 0.323431 20.564C0.530211 20.7596 0.810569 20.8697 1.103 20.87H20.957C21.2494 20.8697 21.5298 20.7596 21.7366 20.564C21.9433 20.3684 22.0597 20.1032 22.06 19.8265V18.0873H20.5893V8.00017C20.589 7.72351 20.4727 7.45828 20.2659 7.26265C20.0591 7.06702 19.7788 6.95698 19.4863 6.95667H15.8097V6.261H18.751ZM20.2217 2.26092C20.2217 2.12254 20.2798 1.98983 20.3832 1.89198C20.4866 1.79414 20.6269 1.73917 20.7732 1.73917C20.9194 1.73917 21.0597 1.79414 21.1631 1.89198C21.2666 1.98983 21.3247 2.12254 21.3247 2.26092V3.82617H20.2217V2.26092ZM18.0157 1.73917H19.6107C19.5287 1.90213 19.4861 2.0804 19.4863 2.26092V4.86967C19.4863 5.05417 19.4089 5.23111 19.271 5.36158C19.1331 5.49204 18.946 5.56533 18.751 5.56533C18.556 5.56533 18.3689 5.49204 18.231 5.36158C18.0931 5.23111 18.0157 5.05417 18.0157 4.86967V1.73917ZM15.8097 1.39133C15.8097 1.20683 15.8871 1.02989 16.025 0.899423C16.1629 0.76896 16.35 0.695667 16.545 0.695667C16.74 0.695667 16.9271 0.76896 17.065 0.899423C17.2029 1.02989 17.2803 1.20683 17.2803 1.39133V4.86967C17.2801 5.11402 17.3484 5.35407 17.4782 5.56533H15.8097V1.39133ZM6.98567 1.39133C6.98589 1.2069 7.06343 1.03007 7.20129 0.899656C7.33914 0.769239 7.52605 0.695878 7.721 0.695667H15.2717C15.1421 0.906988 15.074 1.14702 15.0743 1.39133V11.1307H6.98567V1.39133ZM15.8097 11.8263V10.7828H16.545V12.522H5.515V10.7828H6.25033V11.8263H15.8097ZM21.3247 18.783V19.8265C21.3246 19.9187 21.2858 20.0071 21.2169 20.0723C21.1479 20.1375 21.0545 20.1742 20.957 20.1743H1.103C1.00552 20.1742 0.91207 20.1375 0.843144 20.0723C0.774217 20.0071 0.735445 19.9187 0.735333 19.8265V18.783H8.51944C8.56773 18.7829 8.61558 18.7918 8.6602 18.8093C8.70482 18.8268 8.74533 18.8525 8.77939 18.8849L9.08395 19.173C9.18614 19.2702 9.30769 19.3473 9.44156 19.3997C9.57544 19.4522 9.71899 19.479 9.8639 19.4787H12.1961C12.341 19.479 12.4846 19.4522 12.6184 19.3997C12.7523 19.3473 12.8739 19.2702 12.9761 19.173L13.2806 18.8849C13.3147 18.8525 13.3552 18.8268 13.3998 18.8093C13.4444 18.7918 13.4923 18.7829 13.5406 18.783H21.3247ZM19.4863 7.65233C19.5838 7.65244 19.6773 7.68912 19.7462 7.75433C19.8151 7.81954 19.8539 7.90795 19.854 8.00017V18.0873H13.5406C13.3957 18.087 13.2521 18.1138 13.1182 18.1663C12.9844 18.2187 12.8628 18.2958 12.7606 18.393L12.4561 18.6811C12.422 18.7135 12.3815 18.7392 12.3369 18.7567C12.2922 18.7742 12.2444 18.7831 12.1961 18.783H9.8639C9.8156 18.7831 9.76775 18.7742 9.72313 18.7567C9.67851 18.7392 9.638 18.7135 9.60395 18.6811L9.29938 18.393C9.1972 18.2958 9.07565 18.2187 8.94177 18.1663C8.80789 18.1138 8.66434 18.087 8.51944 18.0873H2.206V8.00017C2.20611 7.90795 2.24488 7.81954 2.31381 7.75433C2.38274 7.68912 2.47619 7.65244 2.57367 7.65233H6.25033V10.0872H4.77967V13.2177H17.2803V10.0872H15.8097V7.65233H19.4863Z" fill="black"/>
<path d="M7.72101 8.34806H14.339V3.47839H7.72101V8.34806ZM12.5007 4.17406H13.6037V4.86973H12.5007V4.17406ZM12.5007 5.56539H13.6037V6.26106H12.5007V5.56539ZM12.5007 6.95673H13.6037V7.65239H12.5007V6.95673ZM8.45634 4.17406H11.7653V4.86973H8.45634V4.17406ZM8.45634 5.56539H11.7653V6.26106H8.45634V5.56539ZM8.45634 6.95673H11.7653V7.65239H8.45634V6.95673Z" fill="black"/>
<path d="M14.339 9.39148H12.8683V10.0871H14.339V9.39148Z" fill="black"/>
<path d="M11.3977 9.39148H7.72101V10.0871H11.3977V9.39148Z" fill="black"/>
<path d="M10.2501 17.0017L10.7701 17.4936C10.8042 17.4613 10.8447 17.4357 10.8893 17.4182C10.9339 17.4007 10.9817 17.3917 11.03 17.3917C11.0783 17.3917 11.1261 17.4007 11.1707 17.4182C11.2153 17.4357 11.2559 17.4613 11.29 17.4936L11.8099 17.0017C11.7075 16.9048 11.5859 16.8279 11.4521 16.7755C11.3182 16.723 11.1748 16.696 11.03 16.696C10.8851 16.696 10.7417 16.723 10.6079 16.7755C10.4741 16.8279 10.3525 16.9048 10.2501 17.0017Z" fill="black"/>
<path d="M9.21008 16.0178L9.73008 16.5097C9.90078 16.3483 10.1034 16.2201 10.3265 16.1327C10.5495 16.0453 10.7886 16.0004 11.03 16.0004C11.2714 16.0004 11.5104 16.0453 11.7335 16.1327C11.9565 16.2201 12.1592 16.3483 12.3299 16.5097L12.8499 16.0178C12.6109 15.7917 12.3271 15.6124 12.0149 15.49C11.7026 15.3677 11.368 15.3047 11.03 15.3047C10.692 15.3047 10.3573 15.3677 10.0451 15.49C9.7328 15.6124 9.44907 15.7917 9.21008 16.0178Z" fill="black"/>
<path d="M8.17023 15.034L8.69022 15.5259C8.99748 15.2352 9.36226 15.0046 9.76372 14.8473C10.1652 14.69 10.5955 14.609 11.03 14.609C11.4646 14.609 11.8948 14.69 12.2963 14.8473C12.6978 15.0046 13.0625 15.2352 13.3698 15.5259L13.8898 15.034C13.5142 14.6787 13.0684 14.3969 12.5777 14.2046C12.087 14.0123 11.5611 13.9133 11.03 13.9133C10.4989 13.9133 9.97299 14.0123 9.48231 14.2046C8.99162 14.3969 8.54578 14.6787 8.17023 15.034Z" fill="black"/>
<path d="M13.236 1.73914H8.82397V2.4348H13.236V1.73914Z" fill="black"/>
</svg>
