<svg width="26" height="20" viewBox="0 0 26 20" fill="none" xmlns="http://www.w3.org/2000/svg">
<path fill-rule="evenodd" clip-rule="evenodd" d="M12.8336 0C9.85209 0 7.45727 2.39482 7.45727 5.37629C7.45727 8.35864 9.85189 10.7537 12.8336 10.7537C15.8152 10.7537 18.2099 8.35864 18.2099 5.37629C18.2099 2.39482 15.815 0 12.8336 0ZM12.8336 1.75C14.8485 1.75 16.4599 3.36132 16.4599 5.37629C16.4599 7.3922 14.8487 9.00365 12.8336 9.00365C10.8185 9.00365 9.20727 7.3922 9.20727 5.37629C9.20727 3.36132 10.8186 1.75 12.8336 1.75ZM6.2445 1.09885C6.72775 1.09885 7.1195 1.4906 7.1195 1.97385C7.1195 2.4571 6.72775 2.84885 6.2445 2.84885C4.85807 2.84885 3.73364 3.9728 3.73364 5.35865C3.73364 6.7445 4.85807 7.86844 6.2445 7.86844C6.72775 7.86844 7.1195 8.26019 7.1195 8.74344C7.1195 9.22669 6.72775 9.61844 6.2445 9.61844C3.89174 9.61844 1.98364 7.71117 1.98364 5.35865C1.98364 3.00613 3.89174 1.09885 6.2445 1.09885ZM23.6944 5.35865C23.6944 3.00613 21.7863 1.09885 19.4335 1.09885C18.9503 1.09885 18.5585 1.4906 18.5585 1.97385C18.5585 2.4571 18.9503 2.84885 19.4335 2.84885C20.82 2.84885 21.9444 3.9728 21.9444 5.35865C21.9444 6.7445 20.82 7.86844 19.4335 7.86844C18.9503 7.86844 18.5585 8.26019 18.5585 8.74344C18.5585 9.22669 18.9503 9.61844 19.4335 9.61844C21.7863 9.61844 23.6944 7.71117 23.6944 5.35865ZM22.818 11.8037C22.2578 11.6773 21.6591 11.5908 21.0503 11.5489C20.5682 11.5156 20.1504 11.8795 20.1172 12.3616C20.0839 12.8437 20.4478 13.2615 20.9299 13.2947C21.4509 13.3306 21.9614 13.4044 22.4578 13.5161C23.2297 13.6675 23.733 13.9186 23.8579 14.1804C23.9519 14.378 23.9519 14.6103 23.857 14.8102C23.7338 15.0694 23.2347 15.3192 22.4736 15.4757C22.0003 15.573 21.6955 16.0356 21.7928 16.509C21.8902 16.9823 22.3528 17.2872 22.8261 17.1898C24.084 16.9312 25.0055 16.4699 25.4378 15.5611C25.7583 14.8854 25.7583 14.1017 25.4378 13.4278C25.0025 12.5155 24.0652 12.0479 22.818 11.8037ZM5.56085 12.3616C5.5276 11.8795 5.10983 11.5156 4.62772 11.5489C4.01897 11.5908 3.42027 11.6773 2.83603 11.8088L2.59518 11.8597C1.48962 12.1123 0.646178 12.5765 0.24133 13.4277C-0.0804998 14.101 -0.0804999 14.8861 0.241669 15.5618C0.672082 16.4697 1.59349 16.931 2.8519 17.1898C3.32525 17.2872 3.78788 16.9823 3.88521 16.509C3.98255 16.0356 3.67773 15.573 3.20439 15.4757C2.44362 15.3192 1.94501 15.0696 1.82214 14.8104C1.7264 14.6096 1.7264 14.3787 1.82096 14.1808C1.94578 13.9184 2.44857 13.6675 3.19626 13.5211L3.58502 13.4415C3.97257 13.3699 4.35742 13.3217 4.74813 13.2947C5.23023 13.2615 5.5941 12.8437 5.56085 12.3616ZM4.93445 16.0382C4.93445 13.2546 7.81371 12.2757 12.8336 12.2757L13.1892 12.2774C17.9993 12.3226 20.7327 13.3037 20.7327 16.0179C20.7327 18.6682 18.1198 19.683 13.5359 19.7737L12.8336 19.7804C7.8022 19.7804 4.93445 18.8187 4.93445 16.0382ZM18.9827 16.0179C18.9827 14.7223 16.9054 14.0257 12.8336 14.0257C8.76573 14.0257 6.68445 14.7333 6.68445 16.0382C6.68445 17.334 8.7611 18.0304 12.8336 18.0304C16.9002 18.0304 18.9827 17.3222 18.9827 16.0179Z" fill="white"/>
</svg>
