<svg width="96" height="106" viewBox="0 0 96 106" fill="none" xmlns="http://www.w3.org/2000/svg">
<path d="M95.7715 0H0.228027V105.82H95.7715V0Z" fill="#F2F1F1"/>
<path fill-rule="evenodd" clip-rule="evenodd" d="M0.461426 41.9014C0.461426 41.9014 51.9176 43.263 87.6884 104.334C87.7822 104.495 87.7145 104.51 87.6884 104.632C87.633 104.896 87.633 105.205 87.6884 105.375C87.7561 105.583 87.7161 105.906 87.6884 105.97C87.6361 106.088 87.4392 105.819 86.7654 105.821C83.1747 105.827 75.7535 105.767 71.8429 105.821C60.0619 105.981 48.4593 105.524 48.4593 105.524C48.4593 105.524 42.1781 65.2766 0.461426 41.9014Z" fill="#231F20"/>
<path fill-rule="evenodd" clip-rule="evenodd" d="M12.4609 46.807L18.4607 49.78L18.7684 49.3341L12.7686 46.2124L12.4609 46.807Z" fill="#F2F1F1"/>
<path fill-rule="evenodd" clip-rule="evenodd" d="M26.1529 53.3477L25.8452 54.0909L31.0758 57.8072L32.1526 57.0639L26.1529 53.3477Z" fill="#F2F1F1"/>
<path fill-rule="evenodd" clip-rule="evenodd" d="M37.8442 63.0099L42.6133 67.4694L43.844 66.4288L38.9211 62.2666L37.8442 63.0099Z" fill="#F2F1F1"/>
<path fill-rule="evenodd" clip-rule="evenodd" d="M48.7671 73.5625L52.9208 78.3193L54.613 77.1301L49.9978 72.3733L48.7671 73.5625Z" fill="#F2F1F1"/>
<path fill-rule="evenodd" clip-rule="evenodd" d="M58.3052 85.0085L61.8435 90.0626L63.9972 88.8734L59.9974 83.8193L58.3052 85.0085Z" fill="#F2F1F1"/>
<path fill-rule="evenodd" clip-rule="evenodd" d="M66.7661 97.1978L69.9967 102.846L73.3812 102.995L69.0737 96.1572L66.7661 97.1978Z" fill="#F2F1F1"/>
<path fill-rule="evenodd" clip-rule="evenodd" d="M42.7675 105.819H47.2288C47.2288 105.819 39.1476 62.7452 0.923133 43.3879C0.435462 43.1412 0.532381 43.2244 0.461615 43.2393C0.330851 43.2675 0.367772 43.4251 0.307775 43.3879C0.100092 43.2586 0.784677 43.2542 0.461615 43.2393C0.25547 43.2289 0.313929 43.327 0.307775 43.3879C0.301622 43.4548 0.243163 43.489 0.307775 43.5634C0.400079 43.6704 0.480075 43.7477 0.307775 43.6852C0.292391 43.6555 0.16932 43.6362 0.307775 43.6852C0.333928 43.7343 0.333928 43.8324 0.307775 43.8339C0.180088 43.8413 0.615454 43.9825 0.615454 43.9825C0.615454 43.9825 33.8171 60.8469 42.7675 105.821V105.819Z" fill="#231F20"/>
<path fill-rule="evenodd" clip-rule="evenodd" d="M41.3967 0.441355C77.392 0.0117564 90.6376 12.5073 95.722 41.882C97.6111 52.7959 89.4561 62.5741 83.8717 66.6873C82.4072 67.7664 79.2273 71.0026 76.6382 70.5492C71.5461 69.6558 58.3021 59.1388 56.4775 54.9528C58.6174 52.4956 61.5896 51.1667 63.4034 48.2695C65.4987 44.9219 65.5633 40.0462 63.7111 36.5351C62.3465 33.9471 60.6527 31.6148 57.8636 30.4449C52.8731 28.3534 43.6842 29.443 38.0106 30.2962C31.9063 31.2149 24.5666 30.3215 19.5438 29.1085C7.58121 26.2188 1.20918 18.8829 0 5.491C1.99991 6.94182 7.03969 5.64857 9.69496 5.04505C16.5285 3.49463 23.8159 2.6057 31.0863 1.33177C34.5231 1.03447 37.9599 0.737169 41.3967 0.439869V0.441355Z" fill="#8C8671"/>
</svg>
