<svg width="24" height="24" viewBox="0 0 24 24" fill="none" xmlns="http://www.w3.org/2000/svg">
<path fill-rule="evenodd" clip-rule="evenodd" d="M7.9314 18.1969C7.84469 18.1348 7.89334 17.9997 7.99997 17.9997C11.866 17.9997 15 14.8657 15 10.9997C15 9.89038 14.7419 8.84133 14.2826 7.9093C13.682 6.69074 13.3818 6.08146 13.6446 5.82801C13.9075 5.57457 14.3771 5.82769 15.3164 6.33392C17.5095 7.51597 19 9.83393 19 12.5C19 16.366 15.866 19.5 12 19.5C10.4826 19.5 9.07802 19.0172 7.9314 18.1969Z" fill="#F2F1F1"/>
<path d="M13.6446 5.82801L14.0611 6.25994L13.6446 5.82801ZM7.9314 18.1969L8.28053 17.7089L7.9314 18.1969ZM7.99997 17.3997C11.5346 17.3997 14.4 14.5343 14.4 10.9997H15.6C15.6 15.1971 12.1973 18.5997 7.99997 18.5997V17.3997ZM14.4 10.9997C14.4 9.98438 14.164 9.02589 13.7444 8.17454L14.8208 7.64406C15.3199 8.65677 15.6 9.79638 15.6 10.9997H14.4ZM18.4 12.5C18.4 10.0633 17.0384 7.94365 15.0317 6.86209L15.601 5.80575C17.9806 7.08829 19.6 9.60459 19.6 12.5H18.4ZM12 18.9C15.5346 18.9 18.4 16.0346 18.4 12.5H19.6C19.6 16.6974 16.1974 20.1 12 20.1V18.9ZM8.28053 17.7089C9.32868 18.4588 10.6119 18.9 12 18.9V20.1C10.3533 20.1 8.82735 19.5756 7.58228 18.6848L8.28053 17.7089ZM13.7444 8.17454C13.4521 7.58143 13.2057 7.08412 13.0733 6.7043C13.007 6.51426 12.95 6.30238 12.949 6.09184C12.9478 5.86199 13.015 5.60165 13.2282 5.39609L14.0611 6.25994C14.0951 6.22714 14.1208 6.18649 14.1357 6.1456C14.1494 6.1081 14.1489 6.08427 14.149 6.08571C14.149 6.09878 14.1554 6.16289 14.2064 6.30918C14.3085 6.602 14.5125 7.01861 14.8208 7.64406L13.7444 8.17454ZM15.0317 6.86209C14.5425 6.59841 14.2396 6.43718 14.0264 6.36161C13.8008 6.28163 13.9293 6.38699 14.0611 6.25994L13.2282 5.39609C13.6228 5.0156 14.1176 5.12079 14.4273 5.23056C14.7495 5.34476 15.151 5.5632 15.601 5.80575L15.0317 6.86209ZM7.99997 18.5997C8.22722 18.5997 8.39806 18.4474 8.45901 18.2746C8.52188 18.0964 8.48088 17.8522 8.28053 17.7089L7.58228 18.6848C7.29521 18.4794 7.23518 18.1367 7.32736 17.8754C7.41761 17.6196 7.66609 17.3997 7.99997 17.3997V18.5997Z" fill="#231F20"/>
<path d="M7.4 11.7L7.4 11.7C7.50137 12.0041 7.55206 12.1562 7.60276 12.2225C7.80288 12.4843 8.19712 12.4843 8.39724 12.2225C8.44794 12.1562 8.49863 12.0041 8.6 11.7L8.6 11.7C8.68177 11.4547 8.72266 11.332 8.77555 11.221C8.97291 10.8067 9.30672 10.4729 9.72099 10.2756C9.83201 10.2227 9.95468 10.1818 10.2 10.1L10.2 10.1C10.5041 9.99863 10.6562 9.94794 10.7225 9.89724C10.9843 9.69712 10.9843 9.30288 10.7225 9.10276C10.6562 9.05206 10.5041 9.00137 10.2 8.9L10.2 8.9C9.95468 8.81822 9.83201 8.77734 9.72099 8.72445C9.30672 8.52709 8.97291 8.19329 8.77555 7.77901C8.72266 7.66799 8.68177 7.54532 8.6 7.3C8.49863 6.99588 8.44794 6.84382 8.39724 6.7775C8.19712 6.51569 7.80288 6.51569 7.60276 6.7775C7.55206 6.84382 7.50137 6.99588 7.4 7.3C7.31823 7.54532 7.27734 7.66799 7.22445 7.77901C7.02709 8.19329 6.69329 8.52709 6.27901 8.72445C6.16799 8.77734 6.04532 8.81823 5.8 8.9C5.49588 9.00137 5.34382 9.05206 5.2775 9.10276C5.01569 9.30288 5.01569 9.69712 5.2775 9.89724C5.34382 9.94794 5.49588 9.99863 5.8 10.1C6.04532 10.1818 6.16799 10.2227 6.27901 10.2756C6.69329 10.4729 7.02709 10.8067 7.22445 11.221C7.27734 11.332 7.31822 11.4547 7.4 11.7Z" fill="#F2F1F1" stroke="#231F20" stroke-width="1.2"/>
</svg>
