<svg width="36" height="30" viewBox="0 0 36 30" fill="none" xmlns="http://www.w3.org/2000/svg">
<path d="M22.6365 15C22.6365 17.0591 20.6018 19 17.7275 19C14.8531 19 12.8184 17.0591 12.8184 15C12.8184 12.9409 14.8531 11 17.7275 11C20.6018 11 22.6365 12.9409 22.6365 15Z" stroke="#F2F1F1" stroke-width="2"/>
<path d="M29.9665 13.8164C30.4659 14.3377 30.7156 14.5983 30.7156 15C30.7156 15.4017 30.4659 15.6623 29.9665 16.1836C27.9419 18.2968 23.2241 22.5 17.7271 22.5C12.2301 22.5 7.51228 18.2968 5.48767 16.1836C4.98829 15.6623 4.73861 15.4017 4.73861 15C4.73861 14.5983 4.98829 14.3377 5.48767 13.8164C7.51228 11.7032 12.2301 7.5 17.7271 7.5C23.2241 7.5 27.9419 11.7032 29.9665 13.8164Z" stroke="#F2F1F1" stroke-width="2"/>
</svg>
