<svg width="28" height="28" viewBox="0 0 28 28" fill="none" xmlns="http://www.w3.org/2000/svg">
<path d="M16.3337 17.5L11.667 22.1667L16.3337 26.8333" stroke="white" stroke-width="2"/>
<path d="M21.0729 9.91683C21.7896 11.1583 22.167 12.5666 22.167 14.0002C22.167 15.4337 21.7896 16.842 21.0729 18.0835C20.3561 19.325 19.3251 20.3559 18.0837 21.0727C16.8422 21.7895 15.4339 22.1668 14.0003 22.1668" stroke="white" stroke-width="2" stroke-linecap="round"/>
<path d="M11.6663 10.5L16.333 5.83333L11.6663 1.16667" stroke="white" stroke-width="2"/>
<path d="M6.92713 18.0832C6.21036 16.8417 5.83301 15.4334 5.83301 13.9998C5.83301 12.5663 6.21036 11.158 6.92713 9.9165C7.64391 8.67501 8.67485 7.64407 9.91634 6.9273C11.1578 6.21052 12.5661 5.83317 13.9997 5.83317" stroke="white" stroke-width="2" stroke-linecap="round"/>
</svg>
