<svg width="30" height="25" viewBox="0 0 30 25" fill="none" xmlns="http://www.w3.org/2000/svg">
<path d="M9.83333 18V19C9.83333 19.2833 9.74282 19.5208 9.56181 19.7125C9.38079 19.9042 9.15648 20 8.88889 20H7.94444C7.67685 20 7.45255 19.9042 7.27153 19.7125C7.09051 19.5208 7 19.2833 7 19V11L8.98333 5C9.07778 4.7 9.24699 4.45833 9.49097 4.275C9.73495 4.09167 10.0065 4 10.3056 4H20.6944C20.9935 4 21.265 4.09167 21.509 4.275C21.753 4.45833 21.9222 4.7 22.0167 5L24 11V19C24 19.2833 23.9095 19.5208 23.7285 19.7125C23.5475 19.9042 23.3231 20 23.0556 20H22.1111C21.8435 20 21.6192 19.9042 21.4382 19.7125C21.2572 19.5208 21.1667 19.2833 21.1667 19V18H9.83333ZM9.64444 9H21.3556L20.3639 6H10.6361L9.64444 9ZM11.25 15C11.6435 15 11.978 14.8542 12.2535 14.5625C12.5289 14.2708 12.6667 13.9167 12.6667 13.5C12.6667 13.0833 12.5289 12.7292 12.2535 12.4375C11.978 12.1458 11.6435 12 11.25 12C10.8565 12 10.522 12.1458 10.2465 12.4375C9.97106 12.7292 9.83333 13.0833 9.83333 13.5C9.83333 13.9167 9.97106 14.2708 10.2465 14.5625C10.522 14.8542 10.8565 15 11.25 15ZM19.75 15C20.1435 15 20.478 14.8542 20.7535 14.5625C21.0289 14.2708 21.1667 13.9167 21.1667 13.5C21.1667 13.0833 21.0289 12.7292 20.7535 12.4375C20.478 12.1458 20.1435 12 19.75 12C19.3565 12 19.022 12.1458 18.7465 12.4375C18.4711 12.7292 18.3333 13.0833 18.3333 13.5C18.3333 13.9167 18.4711 14.2708 18.7465 14.5625C19.022 14.8542 19.3565 15 19.75 15ZM8.88889 16H22.1111V11H8.88889V16Z" fill="white"/>
<path d="M3 4H0V3H3V0H4V3H7V4H4V7H3V4Z" fill="white"/>
</svg>
