<svg width="24" height="25" viewBox="0 0 24 25" fill="none" xmlns="http://www.w3.org/2000/svg">
<path fill-rule="evenodd" clip-rule="evenodd" d="M4.28571 15.9297C1.92625 15.9297 0 17.8559 0 20.2154C0 22.5749 1.92625 24.5011 4.28571 24.5011H16.2857C18.6451 24.5011 20.5714 22.5749 20.5714 20.2154C20.5714 17.8559 18.6451 15.9297 16.2857 15.9297H4.28571ZM4.28571 17.644H16.2857C17.7251 17.644 18.8571 18.776 18.8571 20.2154C18.8571 21.6548 17.7251 22.7868 16.2857 22.7868H4.28571C2.84631 22.7868 1.71428 21.6548 1.71428 20.2154C1.71428 18.776 2.84631 17.644 4.28571 17.644Z" fill="white"/>
<path fill-rule="evenodd" clip-rule="evenodd" d="M17.9997 8.21094C17.7724 8.21094 17.5544 8.30123 17.3936 8.46198C17.2329 8.62272 17.1426 8.84075 17.1426 9.06808C17.1426 9.29541 17.2329 9.51341 17.3936 9.67416C17.5544 9.8349 17.7724 9.92522 17.9997 9.92522C18.227 9.92522 18.4451 9.8349 18.6058 9.67416C18.7666 9.51341 18.8569 9.29541 18.8569 9.06808C18.8569 8.84075 18.7666 8.62272 18.6058 8.46198C18.4451 8.30123 18.227 8.21094 17.9997 8.21094Z" fill="white"/>
<path fill-rule="evenodd" clip-rule="evenodd" d="M17.9997 3.07031C17.7724 3.07031 17.5544 3.1606 17.3936 3.32135C17.2329 3.4821 17.1426 3.70013 17.1426 3.92746V6.49888C17.1426 6.72621 17.2329 6.94422 17.3936 7.10496C17.5544 7.26571 17.7724 7.35603 17.9997 7.35603C18.227 7.35603 18.4451 7.26571 18.6058 7.10496C18.7666 6.94422 18.8569 6.72621 18.8569 6.49888V3.92746C18.8569 3.70013 18.7666 3.4821 18.6058 3.32135C18.4451 3.1606 18.227 3.07031 17.9997 3.07031Z" fill="white"/>
<path fill-rule="evenodd" clip-rule="evenodd" d="M18.0004 0.5C15.7458 0.5 13.7753 1.75607 12.7504 3.60379C11.9788 3.25631 11.1399 3.07132 10.2861 3.07143C6.98257 3.07143 4.28613 5.76788 4.28613 9.07143C4.28613 12.375 6.98257 15.0714 10.2861 15.0714H10.2878C12.4919 15.0654 14.4903 13.8509 15.5295 11.9643C16.284 12.3077 17.1201 12.5 18.0004 12.5C21.304 12.5 24.0004 9.80356 24.0004 6.5C24.0004 3.19646 21.3039 0.5 18.0004 0.5ZM18.0004 2.21429C20.3775 2.21429 22.2861 4.12292 22.2861 6.5C22.2861 8.87709 20.3775 10.7857 18.0004 10.7857C17.1568 10.7857 16.3731 10.5442 15.7119 10.1278C15.6491 10.0701 15.578 10.0222 15.501 9.98549C14.418 9.20973 13.7147 7.94182 13.7147 6.5C13.7147 6.05111 13.7841 5.61838 13.9106 5.21261C13.9543 5.13206 13.9848 5.04502 14.001 4.9548C14.6176 3.3476 16.169 2.21429 18.0004 2.21429ZM10.2861 4.78571C10.9317 4.78563 11.5657 4.93181 12.1427 5.20926C12.0508 5.62525 12.0004 6.05717 12.0004 6.5C12.0004 8.30729 12.8094 9.93169 14.0813 11.0335C13.3571 12.4426 11.9051 13.3521 10.2861 13.3571C7.90905 13.3571 6.00042 11.4485 6.00042 9.07143C6.00042 6.69435 7.90905 4.78571 10.2861 4.78571Z" fill="white"/>
</svg>


