<svg width="15" height="17" viewBox="0 0 15 17" fill="none" xmlns="http://www.w3.org/2000/svg">
<path opacity="0.4" d="M12.7573 5.85083C12.3811 5.85083 11.8827 5.8425 11.2622 5.8425C9.74892 5.8425 8.50462 4.59 8.50462 3.0625V0.3825C8.50462 0.171667 8.33629 0 8.12754 0H3.71969C1.66264 0 0 1.68833 0 3.7575V12.7367C0 14.9075 1.74185 16.6667 3.89132 16.6667H10.4552C12.5049 16.6667 14.1667 14.9892 14.1667 12.9183V6.22583C14.1667 6.01417 13.9992 5.84333 13.7896 5.84417C13.4373 5.84667 13.0148 5.85083 12.7573 5.85083" fill="white"/>
<path opacity="0.4" d="M10.4869 0.472971C10.2377 0.213804 9.80273 0.392138 9.80273 0.751304V2.9488C9.80273 3.87047 10.5619 4.6288 11.4836 4.6288C12.0644 4.63547 12.8711 4.63714 13.5561 4.63547C13.9069 4.63464 14.0852 4.21547 13.8419 3.96214C12.9627 3.04797 11.3886 1.40964 10.4869 0.472971" fill="white"/>
<path fill-rule="evenodd" clip-rule="evenodd" d="M4.56141 7.82286H7.38224C7.72474 7.82286 8.00307 7.54536 8.00307 7.20286C8.00307 6.86036 7.72474 6.58203 7.38224 6.58203H4.56141C4.21891 6.58203 3.94141 6.86036 3.94141 7.20286C3.94141 7.54536 4.21891 7.82286 4.56141 7.82286ZM4.56149 11.9847H9.09816C9.44066 11.9847 9.71899 11.7072 9.71899 11.3647C9.71899 11.0222 9.44066 10.7439 9.09816 10.7439H4.56149C4.21899 10.7439 3.94149 11.0222 3.94149 11.3647C3.94149 11.7072 4.21899 11.9847 4.56149 11.9847Z" fill="white"/>
</svg>
