<svg width="20" height="20" viewBox="0 0 20 20" fill="none" xmlns="http://www.w3.org/2000/svg">
<path fill-rule="evenodd" clip-rule="evenodd" d="M18.3302 6.97927H14.8013C13.1591 6.98216 11.8287 8.27929 11.8258 9.88047C11.8235 11.4853 13.1554 12.7882 14.8013 12.7903H18.3332V13.0453C18.3332 15.8446 16.6361 17.5 13.7643 17.5H6.23613C3.36354 17.5 1.6665 15.8446 1.6665 13.0453V6.94822C1.6665 4.14885 3.36354 2.5 6.23613 2.5H13.7613C16.6332 2.5 18.3302 4.14885 18.3302 6.94822V6.97927ZM5.61613 6.97277H10.3161H10.3191H10.325C10.6769 6.97133 10.9613 6.69182 10.9598 6.34804C10.9584 6.00498 10.6709 5.72765 10.3191 5.72909H5.61613C5.2665 5.73054 4.9828 6.00715 4.98132 6.34876C4.97984 6.69182 5.26428 6.97133 5.61613 6.97277Z" fill="white"/>
<path opacity="0.4" d="M13.3642 10.2472C13.5385 11.0399 14.2334 11.5976 15.0268 11.5831H17.7351C18.0652 11.5831 18.333 11.3097 18.333 10.9717V8.86208C18.3323 8.52485 18.0652 8.25073 17.7351 8.25H14.9631C14.0606 8.2529 13.3316 9.00204 13.333 9.92523C13.333 10.0333 13.3436 10.1413 13.3642 10.2472" fill="white"/>
<path d="M15.8332 9.91689C15.8332 10.3771 15.4601 10.7502 14.9998 10.7502C14.5396 10.7502 14.1665 10.3771 14.1665 9.91689C14.1665 9.45665 14.5396 10.7502 14.9998 10.7502C15.4601 10.7502 15.8332 9.45665 15.8332 9.91689Z" fill="white"/>
</svg>
