<svg width="28" height="29" viewBox="0 0 28 29" fill="none" xmlns="http://www.w3.org/2000/svg">
<path fill-rule="evenodd" clip-rule="evenodd" d="M14.3363 5.0199L14.0024 5.01428C9.1713 5.01428 4.81751 8.42454 2.40444 14.0044C2.30968 14.2235 2.30968 14.4717 2.40444 14.6908L2.57165 15.0672C4.95415 20.2896 9.07139 23.5227 13.6638 23.6753L13.9977 23.681C18.8288 23.681 23.1826 20.2707 25.5956 14.6908C25.6916 14.4689 25.6903 14.2174 25.5922 13.9965L25.4297 13.6309C23.0414 8.39868 18.9224 5.17233 14.3363 5.0199ZM14.0105 6.75194L14.2893 6.75794L14.6008 6.77414C18.3309 7.03826 21.7613 9.80407 23.8339 14.3466L23.823 14.3746C21.6985 19.0148 18.1498 21.7971 14.3021 21.9367L14.0047 21.9412L13.7048 21.9372L13.3941 21.921C9.77987 21.665 6.44748 19.0544 4.36238 14.7673L4.16504 14.3466L4.34771 13.9582C6.54641 9.41629 10.1401 6.75293 14.0105 6.75194ZM13.9995 9.81332C11.479 9.81332 9.43662 11.8429 9.43662 14.3478C9.43662 16.8518 11.4792 18.8812 13.9995 18.8812C16.5198 18.8812 18.5635 16.8517 18.5635 14.3478C18.5635 11.8431 16.5201 9.81332 13.9995 9.81332ZM13.9995 11.552C15.5537 11.552 16.8135 12.8034 16.8135 14.3478C16.8135 15.8913 15.5535 17.1425 13.9995 17.1425C12.4457 17.1425 11.1866 15.8916 11.1866 14.3478C11.1866 12.8031 12.4456 11.552 13.9995 11.552Z" fill="black"/>
</svg>
