<svg width="24" height="25" viewBox="0 0 24 25" fill="none" xmlns="http://www.w3.org/2000/svg">
<path fill-rule="evenodd" clip-rule="evenodd" d="M11.9404 5.71305C11.8464 5.64888 11.8861 5.5 12 5.5C15.866 5.5 19 8.63401 19 12.5C19 16.366 15.866 19.5 12 19.5C11.8098 19.5 11.6213 19.4924 11.4349 19.4775C10.3421 19.3902 9.79575 19.3466 9.7155 18.9863C9.63524 18.6259 10.2439 18.2791 11.4611 17.5853C13.5748 16.3806 15 14.1065 15 11.4995C15 9.09477 13.7875 6.97328 11.9404 5.71305Z" fill="black"/>
<path d="M11.4611 17.5853L11.7582 18.1066L11.4611 17.5853ZM9.7155 18.9863L10.3011 18.8558L9.7155 18.9863ZM11.9404 5.71305L12.2786 5.21743L11.9404 5.71305ZM18.4 12.5C18.4 8.96538 15.5346 6.1 12 6.1V4.9C16.1974 4.9 19.6 8.30264 19.6 12.5H18.4ZM12 18.9C15.5346 18.9 18.4 16.0346 18.4 12.5H19.6C19.6 16.6974 16.1974 20.1 12 20.1V18.9ZM11.4827 18.8794C11.6532 18.893 11.8257 18.9 12 18.9V20.1C11.7938 20.1 11.5894 20.0918 11.3871 20.0756L11.4827 18.8794ZM11.164 17.064C13.0981 15.9617 14.4 13.8822 14.4 11.4995H15.6C15.6 14.3307 14.0516 16.7995 11.7582 18.1066L11.164 17.064ZM14.4 11.4995C14.4 9.30143 13.2925 7.3619 11.6023 6.20868L12.2786 5.21743C14.2824 6.58465 15.6 8.88811 15.6 11.4995H14.4ZM11.3871 20.0756C10.8628 20.0337 10.3966 19.9982 10.0576 19.9182C9.73586 19.8423 9.25107 19.661 9.12985 19.1167L10.3011 18.8558C10.2602 18.6718 10.0887 18.6926 10.3334 18.7503C10.5609 18.804 10.9142 18.834 11.4827 18.8794L11.3871 20.0756ZM11.7582 18.1066C11.1341 18.4623 10.7172 18.7012 10.4594 18.8926C10.3303 18.9884 10.2861 19.0405 10.2773 19.0534C10.2758 19.0555 10.2897 19.0361 10.2996 18.9967C10.3104 18.9534 10.3118 18.9037 10.3011 18.8558L9.12985 19.1167C9.06406 18.8213 9.15754 18.5635 9.28915 18.3725C9.40988 18.1973 9.5789 18.0517 9.74408 17.9291C10.0748 17.6835 10.5709 17.4021 11.164 17.064L11.7582 18.1066ZM12 6.1C12.2473 6.1 12.4212 5.92224 12.4708 5.74126C12.5188 5.56647 12.4655 5.34498 12.2786 5.21743L11.6023 6.20868C11.3213 6.01696 11.2408 5.68893 11.3136 5.42366C11.3881 5.1522 11.6388 4.9 12 4.9V6.1Z" fill="black"/>
<path d="M5.4 10.7L5.4 10.7C5.50137 11.0041 5.55206 11.1562 5.60276 11.2225C5.80288 11.4843 6.19712 11.4843 6.39724 11.2225C6.44794 11.1562 6.49863 11.0041 6.6 10.7L6.6 10.7C6.68177 10.4547 6.72266 10.332 6.77555 10.221C6.97291 9.80672 7.30672 9.47291 7.72099 9.27555C7.83201 9.22266 7.95468 9.18177 8.2 9.1L8.2 9.1C8.50412 8.99863 8.65618 8.94794 8.7225 8.89724C8.98431 8.69712 8.98431 8.30288 8.7225 8.10276C8.65618 8.05206 8.50412 8.00137 8.2 7.9L8.2 7.9C7.95468 7.81822 7.83201 7.77734 7.72099 7.72445C7.30672 7.52709 6.97291 7.19329 6.77555 6.77901C6.72266 6.66799 6.68177 6.54532 6.6 6.3C6.49863 5.99588 6.44794 5.84382 6.39724 5.7775C6.19712 5.51569 5.80288 5.51569 5.60276 5.7775C5.55206 5.84382 5.50137 5.99588 5.4 6.3C5.31823 6.54532 5.27734 6.66799 5.22445 6.77901C5.02709 7.19329 4.69329 7.52709 4.27901 7.72445C4.16799 7.77734 4.04532 7.81823 3.8 7.9C3.49588 8.00137 3.34382 8.05206 3.2775 8.10276C3.01569 8.30288 3.01569 8.69712 3.2775 8.89724C3.34382 8.94794 3.49588 8.99863 3.8 9.1C4.04532 9.18177 4.16799 9.22266 4.27901 9.27555C4.69329 9.47291 5.02709 9.80672 5.22445 10.221C5.27734 10.332 5.31822 10.4547 5.4 10.7Z" fill="black" stroke="black" stroke-width="1.2"/>
</svg>
