<svg width="90" height="95" viewBox="0 0 90 95" fill="none" xmlns="http://www.w3.org/2000/svg">
<path d="M84.1992 83.0823L47.1849 10.5093C47.0646 10.2732 46.8859 10.0759 46.6678 9.93841C46.4498 9.80089 46.2005 9.72827 45.9465 9.72827C45.6925 9.72827 45.4433 9.80089 45.2252 9.93841C45.0072 10.0759 44.8285 10.2732 44.7082 10.5093L7.68687 83.0823C7.57159 83.3085 7.51388 83.5624 7.5194 83.8192C7.52493 84.076 7.59348 84.3269 7.71836 84.5473C7.84324 84.7677 8.02018 84.9502 8.23188 85.0769C8.44358 85.2035 8.68279 85.27 8.92612 85.2699H82.9687C83.2113 85.2684 83.4494 85.2008 83.6599 85.0734C83.8704 84.9461 84.0461 84.7635 84.1699 84.5433C84.2938 84.3231 84.3616 84.0729 84.3667 83.8169C84.3718 83.5609 84.3141 83.3078 84.1992 83.0823ZM49.4613 76.3488H42.43V68.9269H49.4613V76.3488ZM48.7582 64.4886H43.1332L42.0785 34.8011H49.8128L48.7582 64.4886Z" fill="black"/>
</svg>
