<svg width="9" height="8" viewBox="0 0 9 8" fill="none" xmlns="http://www.w3.org/2000/svg">
<path d="M3.3416 7.47309C3.30243 7.43071 3.13491 7.2707 2.99711 7.12165C2.13048 6.24781 0.711994 3.96822 0.279017 2.77509C0.209444 2.59389 0.062191 2.13578 0.0527344 1.89101C0.0527344 1.65648 0.101368 1.4329 0.199987 1.21956C0.337783 0.953605 0.554609 0.740258 0.810613 0.623356C0.988262 0.5481 1.51986 0.431198 1.52931 0.431198C2.11089 0.314296 3.05588 0.25 4.10016 0.25C5.09513 0.25 6.00161 0.314296 6.59197 0.41001C6.60143 0.420969 7.26204 0.537871 7.48832 0.665733C7.90171 0.900268 8.15839 1.35838 8.15839 1.84864V1.89101C8.14826 2.2103 7.89158 2.88176 7.88212 2.88176C7.44847 4.0106 6.09955 6.23758 5.2032 7.13261C5.2032 7.13261 4.97287 7.38468 4.82899 7.49428C4.6223 7.66525 4.36629 7.75 4.11029 7.75C3.82457 7.75 3.55843 7.65429 3.3416 7.47309" fill="black"/>
</svg>
