<svg width="23" height="22" viewBox="0 0 23 22" fill="none" xmlns="http://www.w3.org/2000/svg">
<path d="M14.1365 12.3147C14.2664 12.3147 14.3976 12.3114 14.5305 12.3047C16.3466 12.2138 18.4203 11.4219 18.9591 9.85754C19.2191 9.10261 19.0978 8.24556 18.5986 7.31022C18.0175 6.22131 16.9338 5.04944 15.3777 3.82724C15.3772 3.82684 15.3769 3.82636 15.3764 3.82596C15.3707 3.82137 15.3658 3.81607 15.3607 3.81095C15.3574 3.8075 15.3536 3.80437 15.3505 3.8007C15.3465 3.79593 15.3435 3.79064 15.3401 3.78556C15.337 3.78092 15.3334 3.77651 15.3308 3.77165C15.3283 3.76697 15.3267 3.76189 15.3246 3.75699C15.3222 3.75138 15.3195 3.74591 15.3177 3.74012C15.316 3.73469 15.3154 3.72909 15.3143 3.72357C15.3133 3.71805 15.3117 3.71262 15.3112 3.70701C15.3105 3.701 15.3111 3.695 15.3111 3.68891C15.3112 3.68361 15.3107 3.67835 15.3113 3.67306C15.3119 3.66767 15.3135 3.66237 15.3145 3.65698C15.3157 3.65102 15.3166 3.64502 15.3184 3.63915C15.3199 3.63464 15.3222 3.6304 15.3241 3.62599C15.3268 3.61945 15.3292 3.61292 15.3328 3.60665C15.3331 3.60608 15.3332 3.6055 15.3336 3.60493L16.6481 1.3461C16.4422 1.34278 16.2485 1.34084 16.0591 1.33894C14.7643 1.32605 13.8983 1.31748 12.4454 0.869507L11.9281 1.37983L13.4303 3.32129C13.4312 3.32239 13.4316 3.32363 13.4325 3.32478C13.4363 3.33007 13.4394 3.33564 13.4427 3.34124C13.4454 3.34597 13.4484 3.35056 13.4507 3.35546C13.4532 3.36089 13.4549 3.3665 13.4568 3.37206C13.4586 3.37749 13.4606 3.38279 13.4619 3.38831C13.4631 3.3937 13.4636 3.39917 13.4643 3.40465C13.4651 3.41043 13.4661 3.41617 13.4661 3.422C13.4663 3.42756 13.4656 3.43304 13.4652 3.4386C13.4648 3.44425 13.4646 3.44991 13.4637 3.45551C13.4627 3.46112 13.4609 3.46655 13.4594 3.47211C13.4578 3.47755 13.4565 3.48298 13.4545 3.48827C13.4524 3.49344 13.4496 3.49834 13.4471 3.50333C13.4444 3.50872 13.4418 3.51415 13.4385 3.51927C13.4356 3.52369 13.432 3.5277 13.4287 3.53194C13.4246 3.53715 13.4206 3.54236 13.4159 3.54722C13.4149 3.54819 13.4143 3.54929 13.4133 3.55027C11.8435 5.07227 10.7821 6.47122 10.2587 7.70821C9.81102 8.76621 9.76337 9.68376 10.1171 10.4353C10.664 11.5972 12.2186 12.3146 14.1365 12.3147ZM13.4758 8.84723C13.5222 8.76034 13.6335 8.72581 13.7245 8.77018C14.2435 9.02323 14.7046 8.92454 14.9417 8.76308C15.091 8.66148 15.1662 8.53198 15.148 8.40778C15.1217 8.22865 14.9042 8.05733 14.5513 7.93776C13.6412 7.62852 13.453 7.13511 13.5683 6.80652C13.6528 6.56566 13.9102 6.37488 14.3008 6.31836V5.78393C14.3008 5.6864 14.3836 5.60732 14.4857 5.60732C14.5877 5.60732 14.6705 5.6864 14.6705 5.78393V6.30525C14.8549 6.31628 15.0582 6.352 15.2786 6.41832C15.3759 6.44764 15.43 6.54681 15.3993 6.63984C15.3686 6.73287 15.2648 6.78448 15.1674 6.75521C14.4243 6.53153 13.9899 6.71618 13.9188 6.9188C13.854 7.10349 14.063 7.39698 14.675 7.60494C15.342 7.83091 15.487 8.17425 15.5141 8.35877C15.5515 8.61406 15.4177 8.87275 15.1562 9.05078C15.0329 9.13471 14.8661 9.20633 14.6704 9.24532V9.80734C14.6704 9.90488 14.5877 9.98395 14.4856 9.98395C14.3835 9.98395 14.3007 9.90488 14.3007 9.80734V9.27521C14.0703 9.26753 13.8177 9.21225 13.5564 9.08482C13.4655 9.04049 13.4294 8.93412 13.4758 8.84723Z" fill="black"/>
<path d="M22.0165 11.9454C21.9204 11.849 21.6046 11.8054 21.0309 12C20.4328 12.2028 19.7215 12.6104 19.0282 13.1476C18.1969 13.7789 17.2467 14.4073 16.4928 14.2903L16.4423 14.2825C16.7913 14.6081 16.9709 15.0254 16.9021 15.4356C16.7954 16.0704 16.1514 16.4538 15.1794 16.4611C15.179 16.4611 15.1785 16.4611 15.178 16.4611C15.1682 16.4611 15.1583 16.4603 15.1486 16.4588L10.7423 15.7798C10.6415 15.7642 10.5729 15.6736 10.5892 15.5773C10.6055 15.481 10.7004 15.4153 10.8011 15.4311L15.1919 16.1076C15.9594 16.0984 16.4619 15.8268 16.537 15.3795C16.6068 14.9642 16.2625 14.3877 15.4872 14.1371C15.484 14.1361 15.4813 14.1344 15.4783 14.1333L10.5606 13.3725C10.5138 13.3652 10.4717 13.3411 10.443 13.305C9.86043 12.5728 9.16856 12.1614 8.38661 12.0821C6.59209 11.9003 4.67204 13.4746 3.7495 14.2312C3.65937 14.3052 3.57799 14.3717 3.50464 14.4304L2.92683 13.736C2.89383 13.6963 2.84457 13.6721 2.79155 13.6695C2.73831 13.6671 2.68696 13.6862 2.6499 13.7224L0.0526763 15.7382C-0.0186831 15.808 -0.0173891 15.9198 0.0556341 15.988C0.128611 16.0561 0.245679 16.0549 0.317039 15.9851L2.76775 14.1125L7.42381 19.708L5.42154 21.4432C5.35259 21.5152 5.35781 21.6268 5.4331 21.6927C5.46859 21.7237 5.51324 21.739 5.55784 21.739C5.60789 21.739 5.65781 21.7197 5.69427 21.6816L7.80302 19.8353C7.8644 19.7713 7.86791 19.6741 7.81139 19.6062L4.22572 15.2971L7.10057 18.7519L7.89255 18.1494C7.931 18.1202 7.98008 18.1068 8.0287 18.1121C14.5648 18.8261 14.901 18.545 18.1175 15.8542C18.9454 15.1616 19.9751 14.3002 21.343 13.2608C22.1004 12.4496 22.1231 12.0524 22.0165 11.9454Z" fill="black"/>
<path d="M5.89096 19.8765C5.91051 19.7127 5.86221 19.5515 5.75498 19.4225C5.63163 19.2742 5.44709 19.1892 5.24877 19.1892C5.10318 19.1892 4.96042 19.2371 4.84742 19.3236C4.71228 19.426 4.62701 19.5728 4.60732 19.7367C4.58768 19.9006 4.63588 20.0618 4.74329 20.1911C4.86669 20.3389 5.051 20.4237 5.24904 20.4237C5.39431 20.4237 5.53702 20.3761 5.65076 20.2898C5.78609 20.1873 5.87136 20.0405 5.89096 19.8765Z" fill="black"/>
</svg>
