<svg width="26" height="21" viewBox="0 0 26 21" fill="none" xmlns="http://www.w3.org/2000/svg">
<path fill-rule="evenodd" clip-rule="evenodd" d="M12.9273 0.35791C9.94588 0.35791 7.55102 2.75273 7.55102 5.73421C7.55102 8.71659 9.94568 11.1116 12.9273 11.1116C15.909 11.1116 18.3036 8.71659 18.3036 5.73421C18.3036 2.75273 15.9088 0.35791 12.9273 0.35791ZM12.9273 2.10791C14.9423 2.10791 16.5536 3.71923 16.5536 5.73421C16.5536 7.75009 14.9424 9.36159 12.9273 9.36159C10.9122 9.36159 9.30098 7.75009 9.30098 5.73421C9.30098 3.71923 10.9124 2.10791 12.9273 2.10791ZM6.33825 1.45677C6.8215 1.45677 7.21325 1.84852 7.21325 2.33177C7.21325 2.81502 6.8215 3.20677 6.33825 3.20677C4.95182 3.20677 3.82739 4.33071 3.82739 5.71656C3.82739 7.10239 4.95182 8.22639 6.33825 8.22639C6.8215 8.22639 7.21325 8.61809 7.21325 9.10139C7.21325 9.58459 6.8215 9.97639 6.33825 9.97639C3.9855 9.97639 2.07739 8.06909 2.07739 5.71656C2.07739 3.36404 3.9855 1.45677 6.33825 1.45677ZM23.7882 5.71656C23.7882 3.36404 21.8801 1.45677 19.5273 1.45677C19.0441 1.45677 18.6523 1.84852 18.6523 2.33177C18.6523 2.81502 19.0441 3.20677 19.5273 3.20677C20.9137 3.20677 22.0382 4.33071 22.0382 5.71656C22.0382 7.10239 20.9137 8.22639 19.5273 8.22639C19.0441 8.22639 18.6523 8.61809 18.6523 9.10139C18.6523 9.58459 19.0441 9.97639 19.5273 9.97639C21.8801 9.97639 23.7882 8.06909 23.7882 5.71656ZM22.9118 12.1616C22.3515 12.0352 21.7528 11.9488 21.1441 11.9068C20.662 11.8735 20.2442 12.2374 20.211 12.7195C20.1777 13.2016 20.5416 13.6194 21.0237 13.6526C21.5446 13.6886 22.0551 13.7623 22.5515 13.874C23.3235 14.0255 23.8268 14.2766 23.9517 14.5383C24.0457 14.7359 24.0457 14.9682 23.9508 15.1682C23.8276 15.4273 23.3285 15.6771 22.5674 15.8336C22.0941 15.9309 21.7893 16.3936 21.8866 16.8669C21.9839 17.3403 22.4466 17.6451 22.9199 17.5477C24.1778 17.2891 25.0992 16.8278 25.5315 15.919C25.8521 15.2433 25.8521 14.4596 25.5316 13.7857C25.0962 12.8734 24.1589 12.4058 22.9118 12.1616ZM5.6546 12.7195C5.62135 12.2374 5.20358 11.8735 4.72147 11.9068C4.11272 11.9488 3.51402 12.0352 2.92979 12.1667L2.68893 12.2176C1.58337 12.4702 0.73993 12.9345 0.33508 13.7856C0.01325 14.4589 0.0132501 15.244 0.33542 15.9197C0.76583 16.8276 1.68724 17.289 2.94566 17.5477C3.419 17.6451 3.88163 17.3403 3.97897 16.8669C4.0763 16.3936 3.77149 15.9309 3.29814 15.8336C2.53737 15.6772 2.03877 15.4275 1.91589 15.1683C1.82016 14.9675 1.82016 14.7366 1.91471 14.5388C2.03953 14.2764 2.54232 14.0254 3.29001 13.879L3.67878 13.7995C4.06632 13.7278 4.45117 13.6796 4.84188 13.6526C5.32398 13.6194 5.68785 13.2016 5.6546 12.7195ZM5.0282 16.3961C5.0282 13.6125 7.90746 12.6336 12.9273 12.6336L13.283 12.6353C18.0931 12.6805 20.8264 13.6616 20.8264 16.3758C20.8264 19.0261 18.2136 20.0409 13.6296 20.1316L12.9273 20.1383C7.89596 20.1383 5.0282 19.1766 5.0282 16.3961ZM19.0764 16.3758C19.0764 15.0802 16.9991 14.3836 12.9273 14.3836C8.85949 14.3836 6.7782 15.0913 6.7782 16.3961C6.7782 17.6919 8.85485 18.3883 12.9273 18.3883C16.9939 18.3883 19.0764 17.6801 19.0764 16.3758Z" fill="black"/>
</svg>
