<svg width="64" height="64" viewBox="0 0 64 64" fill="none" xmlns="http://www.w3.org/2000/svg">
<path fill-rule="evenodd" clip-rule="evenodd" d="M32.006 10.6666C20.2239 10.6666 10.6727 20.2178 10.6727 31.9999C10.6727 37.5976 12.8275 42.6929 16.358 46.5006C16.4913 46.0596 16.6686 45.6264 16.8998 45.2129C17.6838 43.8112 18.6728 42.515 19.8463 41.3689C21.0239 40.2187 22.3525 39.2534 23.7856 38.4908C21.603 36.4015 20.2385 33.4817 20.2385 30.2221C20.2385 23.7813 25.5666 18.6666 32.006 18.6666C38.4455 18.6666 43.7736 23.7813 43.7736 30.2221C43.7736 33.4817 42.409 36.4015 40.2264 38.4908C41.6595 39.2534 42.9881 40.2187 44.1658 41.3689C45.3392 42.515 46.3282 43.8112 47.1122 45.2129C47.3435 45.6264 47.5208 46.0596 47.654 46.5006C51.1845 42.6929 53.3394 37.5976 53.3394 31.9999C53.3394 20.2178 43.7881 10.6666 32.006 10.6666ZM42.5157 50.5697C42.6192 50.0371 42.6711 49.5371 42.6727 49.094C42.6752 48.3621 42.5411 47.9659 42.4575 47.8163C41.9227 46.8601 41.246 45.9723 40.4393 45.1843C38.2131 43.0101 35.1807 41.7777 32.006 41.7777C28.8313 41.7777 25.7989 43.0101 23.5728 45.1843C22.766 45.9723 22.0894 46.8601 21.5546 47.8163C21.4709 47.9659 21.3368 48.3621 21.3394 49.094C21.3409 49.5371 21.3928 50.0371 21.4964 50.5697C24.5967 52.3287 28.1807 53.3333 32.006 53.3333C35.8314 53.3333 39.4153 52.3287 42.5157 50.5697ZM32.006 36.4444C35.6192 36.4444 38.4403 33.5997 38.4403 30.2221C38.4403 26.8446 35.6192 23.9999 32.006 23.9999C28.3929 23.9999 25.5718 26.8446 25.5718 30.2221C25.5718 33.5997 28.3929 36.4444 32.006 36.4444ZM5.33936 31.9999C5.33936 17.2723 17.2784 5.33325 32.006 5.33325C46.7336 5.33325 58.6727 17.2723 58.6727 31.9999C58.6727 41.4859 53.7177 49.8128 46.2673 54.5363C42.1413 57.1523 37.2464 58.6666 32.006 58.6666C26.7656 58.6666 21.8708 57.1523 17.7447 54.5363C10.2944 49.8128 5.33936 41.486 5.33936 31.9999Z" fill="black"/>
</svg>
