<svg width="26" height="24" viewBox="0 0 26 24" fill="none" xmlns="http://www.w3.org/2000/svg">
<path d="M3.42857 4.57143H0V3.42857H3.42857V0H4.57143V3.42857H8V4.57143H4.57143V8H3.42857V4.57143Z" fill="#231F20"/>
<path d="M7.66667 21.5V22.75C7.66667 23.1042 7.54954 23.401 7.31528 23.6406C7.08102 23.8802 6.79074 24 6.44444 24H5.22222C4.87593 24 4.58565 23.8802 4.35139 23.6406C4.11713 23.401 4 23.1042 4 22.75V12.75L6.56667 5.25C6.68889 4.875 6.90787 4.57292 7.22361 4.34375C7.53935 4.11458 7.89074 4 8.27778 4H21.7222C22.1093 4 22.4606 4.11458 22.7764 4.34375C23.0921 4.57292 23.3111 4.875 23.4333 5.25L26 12.75V22.75C26 23.1042 25.8829 23.401 25.6486 23.6406C25.4144 23.8802 25.1241 24 24.7778 24H23.5556C23.2093 24 22.919 23.8802 22.6847 23.6406C22.4505 23.401 22.3333 23.1042 22.3333 22.75V21.5H7.66667ZM7.42222 10.25H22.5778L21.2944 6.5H8.70556L7.42222 10.25ZM9.5 17.75C10.0093 17.75 10.4421 17.5677 10.7986 17.2031C11.1551 16.8385 11.3333 16.3958 11.3333 15.875C11.3333 15.3542 11.1551 14.9115 10.7986 14.5469C10.4421 14.1823 10.0093 14 9.5 14C8.99074 14 8.55787 14.1823 8.20139 14.5469C7.84491 14.9115 7.66667 15.3542 7.66667 15.875C7.66667 16.3958 7.84491 16.8385 8.20139 17.2031C8.55787 17.5677 8.99074 17.75 9.5 17.75ZM20.5 17.75C21.0093 17.75 21.4421 17.5677 21.7986 17.2031C22.1551 16.8385 22.3333 16.3958 22.3333 15.875C22.3333 15.3542 22.1551 14.9115 21.7986 14.5469C21.4421 14.1823 21.0093 14 20.5 14C19.9907 14 19.5579 14.1823 19.2014 14.5469C18.8449 14.9115 18.6667 15.3542 18.6667 15.875C18.6667 16.3958 18.8449 16.8385 19.2014 17.2031C19.5579 17.5677 19.9907 17.75 20.5 17.75ZM6.44444 19H23.5556V12.75H6.44444V19Z" fill="#231F20"/>
</svg>

