<svg width="47" height="41" viewBox="0 0 47 41" fill="none" xmlns="http://www.w3.org/2000/svg">
<path d="M37.2083 0.083374H9.79167C4.39254 0.083374 0 4.66283 0 10.2917V30.7084C0 36.3373 4.39254 40.9167 9.79167 40.9167H37.2083C42.6075 40.9167 47 36.3373 47 30.7084V10.2917C47 4.66283 42.6075 0.083374 37.2083 0.083374ZM43.0833 30.7084C43.0833 34.0853 40.4474 36.8334 37.2083 36.8334H9.79167C6.55258 36.8334 3.91667 34.0853 3.91667 30.7084V10.2917C3.91667 6.91479 6.55258 4.16671 9.79167 4.16671H37.2083C40.4474 4.16671 43.0833 6.91479 43.0833 10.2917V30.7084ZM31.7387 14.7977L26.2691 20.5L31.7387 26.2024C32.5044 27.0007 32.5044 28.291 31.7387 29.0893C31.3568 29.4875 30.8555 29.6875 30.3542 29.6875C29.8528 29.6875 29.3515 29.4875 28.9696 29.0893L23.5 23.387L18.0304 29.0893C17.6485 29.4875 17.1472 29.6875 16.6458 29.6875C16.1445 29.6875 15.6432 29.4875 15.2613 29.0893C14.4956 28.291 14.4956 27.0007 15.2613 26.2024L20.7309 20.5L15.2613 14.7977C14.4956 13.9994 14.4956 12.709 15.2613 11.9107C16.027 11.1125 17.2647 11.1125 18.0304 11.9107L23.5 17.6131L28.9696 11.9107C29.7353 11.1125 30.973 11.1125 31.7387 11.9107C32.5044 12.709 32.5044 13.9994 31.7387 14.7977Z" fill="black"/>
</svg>
