<svg width="28" height="28" viewBox="0 0 28 28" fill="none" xmlns="http://www.w3.org/2000/svg">
<path fill-rule="evenodd" clip-rule="evenodd" d="M13.9273 4.0105C10.9458 4.0105 8.55102 6.40532 8.55102 9.38679C8.55102 12.3691 10.9456 14.7642 13.9273 14.7642C16.909 14.7642 19.3036 12.3691 19.3036 9.38679C19.3036 6.40532 16.9088 4.0105 13.9273 4.0105ZM13.9273 5.7605C15.9423 5.7605 17.5536 7.37182 17.5536 9.38679C17.5536 11.4027 15.9424 13.0142 13.9273 13.0142C11.9122 13.0142 10.301 11.4027 10.301 9.38679C10.301 7.37182 11.9123 5.7605 13.9273 5.7605ZM7.33825 5.10935C7.8215 5.10935 8.21325 5.5011 8.21325 5.98435C8.21325 6.4676 7.8215 6.85935 7.33825 6.85935C5.95182 6.85935 4.82739 7.98329 4.82739 9.36914C4.82739 10.755 5.95182 11.8789 7.33825 11.8789C7.8215 11.8789 8.21325 12.2707 8.21325 12.7539C8.21325 13.2372 7.8215 13.6289 7.33825 13.6289C4.98549 13.6289 3.07739 11.7217 3.07739 9.36914C3.07739 7.01662 4.98549 5.10935 7.33825 5.10935ZM24.7881 9.36914C24.7881 7.01662 22.88 5.10935 20.5273 5.10935C20.044 5.10935 19.6523 5.5011 19.6523 5.98435C19.6523 6.4676 20.044 6.85935 20.5273 6.85935C21.9137 6.85935 23.0381 7.98329 23.0381 9.36914C23.0381 10.755 21.9137 11.8789 20.5273 11.8789C20.044 11.8789 19.6523 12.2707 19.6523 12.7539C19.6523 13.2372 20.044 13.6289 20.5273 13.6289C22.88 13.6289 24.7881 11.7217 24.7881 9.36914ZM23.9117 15.8142C23.3515 15.6878 22.7528 15.6013 22.1441 15.5594C21.662 15.5261 21.2442 15.89 21.2109 16.3721C21.1777 16.8542 21.5416 17.272 22.0237 17.3052C22.5446 17.3411 23.0551 17.4149 23.5515 17.5266C24.3235 17.678 24.8268 17.9291 24.9517 18.1909C25.0456 18.3885 25.0456 18.6208 24.9508 18.8207C24.8275 19.0799 24.3284 19.3297 23.5674 19.4862C23.094 19.5835 22.7892 20.0461 22.8866 20.5195C22.9839 20.9928 23.4465 21.2977 23.9199 21.2003C25.1778 20.9416 26.0992 20.4804 26.5315 19.5716C26.852 18.8959 26.852 18.1122 26.5316 17.4383C26.0962 16.526 25.1589 16.0584 23.9117 15.8142ZM6.6546 16.3721C6.62135 15.89 6.20358 15.5261 5.72147 15.5594C5.11272 15.6013 4.51402 15.6878 3.92978 15.8193L3.68893 15.8702C2.58337 16.1228 1.73993 16.587 1.33508 17.4382C1.01325 18.1115 1.01325 18.8966 1.33542 19.5723C1.76583 20.4802 2.68724 20.9415 3.94565 21.2003C4.419 21.2977 4.88163 20.9928 4.97896 20.5195C5.0763 20.0461 4.77148 19.5835 4.29814 19.4862C3.53737 19.3297 3.03876 19.0801 2.91589 18.8209C2.82015 18.6201 2.82015 18.3892 2.91471 18.1913C3.03953 17.9289 3.54232 17.678 4.29001 17.5316L4.67877 17.452C5.06632 17.3804 5.45117 17.3322 5.84188 17.3052C6.32398 17.272 6.68785 16.8542 6.6546 16.3721ZM6.0282 20.0487C6.0282 17.2651 8.90746 16.2862 13.9273 16.2862L14.283 16.2879C19.093 16.3331 21.8264 17.3142 21.8264 20.0284C21.8264 22.6787 19.2136 23.6935 14.6296 23.7841L13.9273 23.7909C8.89595 23.7909 6.0282 22.8292 6.0282 20.0487ZM20.0764 20.0284C20.0764 18.7328 17.9991 18.0362 13.9273 18.0362C9.85948 18.0362 7.7782 18.7438 7.7782 20.0487C7.7782 21.3445 9.85485 22.0409 13.9273 22.0409C17.9939 22.0409 20.0764 21.3327 20.0764 20.0284Z" fill="#231F20"/>
</svg>
