<svg width="19" height="24" viewBox="0 0 19 24" fill="none" xmlns="http://www.w3.org/2000/svg">
<path opacity="0.4" d="M17.1098 8.4252C16.6052 8.4252 15.9368 8.4132 15.1046 8.4132C13.075 8.4132 11.4062 6.6096 11.4062 4.41V0.5508C11.4062 0.2472 11.1804 0 10.9005 0H4.98876C2.22989 0 0 2.4312 0 5.4108V18.3408C0 21.4668 2.33613 24 5.21894 24H14.0223C16.7712 24 19 21.5844 19 18.6024V8.9652C19 8.6604 18.7754 8.4144 18.4943 8.4156C18.0217 8.4192 17.4551 8.4252 17.1098 8.4252" fill="#231F20"/>
<path opacity="0.4" d="M14.065 0.680844C13.7309 0.307644 13.1475 0.564444 13.1475 1.08164V4.24604C13.1475 5.57324 14.1656 6.66524 15.4018 6.66524C16.1808 6.67484 17.2626 6.67724 18.1813 6.67484C18.6519 6.67364 18.891 6.07004 18.5647 5.70524C17.3856 4.38884 15.2743 2.02964 14.065 0.680844" fill="#231F20"/>
<path fill-rule="evenodd" clip-rule="evenodd" d="M6.11766 11.2653H9.9009C10.3603 11.2653 10.7335 10.8657 10.7335 10.3725C10.7335 9.87932 10.3603 9.47852 9.9009 9.47852H6.11766C5.65831 9.47852 5.28613 9.87932 5.28613 10.3725C5.28613 10.8657 5.65831 11.2653 6.11766 11.2653ZM6.11785 17.2584H12.2023C12.6617 17.2584 13.035 16.8588 13.035 16.3656C13.035 15.8724 12.6617 15.4716 12.2023 15.4716H6.11785C5.6585 15.4716 5.28632 15.8724 5.28632 16.3656C5.28632 16.8588 5.6585 17.2584 6.11785 17.2584Z" fill="#231F20"/>
</svg>
