<svg width="25" height="25" viewBox="0 0 25 25" fill="none" xmlns="http://www.w3.org/2000/svg">
<path fill-rule="evenodd" clip-rule="evenodd" d="M22.4964 8.87513H18.2618C16.2911 8.87859 14.6947 10.4351 14.6911 12.3566C14.6884 14.2823 16.2867 15.8458 18.2618 15.8484H22.5V16.1543C22.5 19.5136 20.4636 21.5 17.0173 21.5H7.98356C4.53644 21.5 2.5 19.5136 2.5 16.1543V8.83786C2.5 5.47862 4.53644 3.5 7.98356 3.5H17.0138C20.46 3.5 22.4964 5.47862 22.4964 8.83786V8.87513ZM7.23956 8.86733H12.8796H12.8831H12.8902C13.3124 8.86559 13.6538 8.53019 13.652 8.11765C13.6502 7.70598 13.3053 7.37318 12.8831 7.37491H7.23956C6.82 7.37664 6.47956 7.70858 6.47778 8.11852C6.476 8.53019 6.81733 8.86559 7.23956 8.86733Z" fill="#231F20"/>
<path opacity="0.4" d="M16.5374 12.7966C16.7465 13.7478 17.5805 14.417 18.5326 14.3996H21.7825C22.1787 14.3996 22.5 14.0715 22.5 13.666V11.1344C22.4992 10.7297 22.1787 10.4008 21.7825 10.3999H18.4561C17.3731 10.4034 16.4983 11.3024 16.5 12.4102C16.5 12.5398 16.5128 12.6695 16.5374 12.7966" fill="#231F20"/>
<path d="M19.5 12.4001C19.5 12.9524 19.0523 13.4001 18.5 13.4001C17.9477 13.4001 17.5 12.9524 17.5 12.4001C17.5 11.8478 17.9477 13.4001 18.5 13.4001C19.0523 13.4001 19.5 11.8478 19.5 12.4001Z" fill="#231F20"/>
</svg>

