<svg width="13" height="13" viewBox="0 0 13 13" fill="none" xmlns="http://www.w3.org/2000/svg">
<path d="M7.99734 0.664697C8.0569 0.733747 8.31156 0.994468 8.52103 1.23733C9.83848 2.66118 11.9949 6.37557 12.6531 8.31968C12.7588 8.61492 12.9827 9.36137 12.9971 9.7602C12.9971 10.1423 12.9231 10.5066 12.7732 10.8543C12.5637 11.2876 12.2341 11.6352 11.8449 11.8257C11.5749 11.9484 10.7668 12.1388 10.7524 12.1388C9.86826 12.3293 8.4317 12.4341 6.84419 12.4341C5.33164 12.4341 3.95361 12.3293 3.05614 12.1734C3.04176 12.1555 2.0375 11.965 1.69351 11.7567C1.06508 11.3745 0.674875 10.6281 0.674875 9.82925V9.7602C0.690277 9.23994 1.08048 8.14586 1.09486 8.14586C1.75409 6.30653 3.80471 2.67785 5.16734 1.21947C5.16734 1.21947 5.5175 0.808748 5.73622 0.630172C6.05043 0.351592 6.43961 0.213493 6.82878 0.213493C7.26314 0.213493 7.66772 0.369451 7.99734 0.664697Z" fill="#231F20"/>
</svg>
