<svg width="28" height="28" viewBox="0 0 28 28" fill="none" xmlns="http://www.w3.org/2000/svg">
<path d="M16.3337 17.5L11.667 22.1667L16.3337 26.8333" stroke="#231F20" stroke-width="2"/>
<path d="M21.0729 9.91659C21.7896 11.1581 22.167 12.5664 22.167 13.9999C22.167 15.4335 21.7896 16.8418 21.0729 18.0833C20.3561 19.3247 19.3251 20.3557 18.0837 21.0725C16.8422 21.7892 15.4339 22.1666 14.0003 22.1666" stroke="#231F20" stroke-width="2" stroke-linecap="round"/>
<path d="M11.6663 10.5L16.333 5.83333L11.6663 1.16667" stroke="#231F20" stroke-width="2"/>
<path d="M6.92713 18.0834C6.21036 16.8419 5.83301 15.4336 5.83301 14.0001C5.83301 12.5665 6.21036 11.1582 6.92713 9.91675C7.64391 8.67526 8.67485 7.64431 9.91634 6.92754C11.1578 6.21077 12.5661 5.83341 13.9997 5.83341" stroke="#231F20" stroke-width="2" stroke-linecap="round"/>
</svg>
